<svg width="20" height="20" viewBox="0 0 20 20" fill="none" xmlns="http://www.w3.org/2000/svg">
<g clip-path="url(#clip0_1939_6086)">
<path d="M0 10.6C0 10.2 0 9.8 0 9.4C0 9.3 0 9.3 0 9.2C0.1 7.8 0.5 6.5 1.1 5.3C2.7 2.5 5 0.8 8.2 0.2C8.6 0.1 9 0.1 9.4 0C9.8 0 10.2 0 10.6 0C10.7 0 10.7 0 10.8 0C12.2 0.1 13.5 0.5 14.7 1.1C17.9 3 19.7 5.8 20 9.6C20.1 11.6 19.6 13.4 18.6 15.1C16.7 18.1 14 19.8 10.5 20C8.7 20.1 7 19.7 5.4 18.8C2.6 17.3 0.9 14.9 0.3 11.7C0.1 11.4 0.1 11 0 10.6ZM12.2 14.8C11.9 14.9 11.6 14.9 11.4 15C10.6 15.1 10.3 14.7 10.4 14C10.5 13.4 10.7 12.8 10.8 12.2C11 11.4 11.3 10.6 11.4 9.8C11.4 9.1 11.1 8.5 10.4 8.2C10 8 9.5 8 9.1 8C8.4 8.1 7.9 8.4 7.3 8.6C7.3 8.6 7.2 8.6 7.2 8.7C7.1 8.9 7.1 9.1 7 9.3C7.1 9.3 7.3 9.2 7.4 9.2C7.7 9.1 8 9.1 8.4 9.1C8.7 9.2 8.8 9.3 8.8 9.6C8.8 9.9 8.8 10.2 8.7 10.5C8.5 11.2 8.3 11.9 8.2 12.5C8 13.1 7.9 13.7 7.8 14.3C7.8 15 8.1 15.5 8.8 15.8C9.3 16 9.9 16.1 10.4 15.9C11 15.8 11.5 15.5 12 15.4L12.1 15.3C12.1 15.2 12.2 15 12.2 14.8ZM10.9 3.8C10.7 3.8 10.5 3.9 10.4 3.9C9.5 4.2 9.1 5.3 9.6 6C10 6.6 10.5 6.7 11.2 6.7C12 6.6 12.5 5.9 12.4 5.1C12.3 4.4 11.7 3.9 10.9 3.8Z" fill="#FEFEFE"/>
</g>
<defs>
<clipPath id="clip0_1939_6086">
<rect width="20" height="20" fill="white"/>
</clipPath>
</defs>
</svg>
