<svg width="24" height="24" viewBox="0 0 24 24" fill="none" xmlns="http://www.w3.org/2000/svg">
<g clip-path="url(#clip0_1732_7867)">
<path d="M11.9899 17.0075C11.5879 17.0075 11.2361 16.9071 10.9246 16.6861C10.5427 16.4149 10.3718 16.0532 10.3919 15.5811C10.4221 15.0387 10.5829 14.5063 10.7336 14.004C10.804 13.7629 10.8743 13.5319 10.9346 13.2908L10.9849 13.0999C11.0854 12.7182 11.1758 12.3265 11.2261 11.9347C11.2562 11.7137 11.216 11.5329 11.1055 11.4224C10.9949 11.3019 10.8241 11.2416 10.5929 11.2416C10.3718 11.2416 10.2311 11.2717 10.0904 11.3019C9.99995 11.3219 9.9095 11.3521 9.81905 11.3822L9.67834 11.4224L9.73865 11.2918C9.7688 11.1612 9.79895 11.0507 9.8291 10.9302C9.83915 10.89 9.87935 10.8498 9.9095 10.8398L10.1306 10.7594C10.6733 10.5585 11.2361 10.3576 11.8391 10.3576H12C12.6633 10.3978 13.216 10.8096 13.3065 11.332C13.3668 11.6635 13.3467 12.0552 13.2663 12.4269C13.1557 12.9091 13.015 13.3913 12.8743 13.8734C12.7839 14.1848 12.6934 14.4862 12.613 14.7976C12.5628 14.9985 12.5326 15.2295 12.5125 15.5208C12.4924 15.8322 12.6432 16.0231 12.9547 16.0834C13.0753 16.1135 13.1959 16.1236 13.3165 16.1236C13.5376 16.1236 13.7688 16.0834 14 15.993L14.0904 15.9427L14.0502 16.0934C14.0201 16.224 13.9899 16.3345 13.9497 16.455C13.9497 16.4852 13.8995 16.5153 13.8693 16.5254L13.4874 16.6559C13.1758 16.7664 12.8442 16.887 12.5125 16.9473C12.3216 16.9874 12.1407 17.0075 11.9497 17.0075H11.9899Z" fill="#FEFEFE"/>
<path d="M12.9748 9.28276C12.4824 9.28276 12.0201 9.01154 11.819 8.61978C11.6582 8.29833 11.6683 7.92666 11.8391 7.61526C12.0301 7.27372 12.3919 7.04268 12.814 7.0025H12.9246C13.3266 7.0025 13.6683 7.13309 13.9095 7.37417C14.1206 7.58512 14.2311 7.86639 14.2311 8.16775C14.2311 8.65996 13.8592 9.0919 13.3165 9.24258C13.206 9.27272 13.0954 9.29281 12.9748 9.29281V9.28276Z" fill="#FEFEFE"/>
<path d="M12 22C6.48241 22 2 17.5198 2 12.005C2 6.49021 6.48241 2 12 2C17.5176 2 22 6.49021 22 12.005C22 17.5198 17.5176 22 12 22ZM12 3.41637C7.26633 3.41637 3.41709 7.26369 3.41709 12.005C3.41709 16.7464 7.26633 20.5836 12 20.5836C16.7337 20.5836 20.5829 16.7363 20.5829 12.005C20.5829 7.27373 16.7337 3.41637 12 3.41637Z" fill="#FEFEFE"/>
</g>
<defs>
<clipPath id="clip0_1732_7867">
<rect width="20" height="20" fill="white" transform="translate(2 2)"/>
</clipPath>
</defs>
</svg>
