<svg width="65" height="65" viewBox="0 0 65 65" fill="none" xmlns="http://www.w3.org/2000/svg">
<g clip-path="url(#clip0_1998_5681)">
<path d="M61.0102 11.08L57.5402 11.11H4.06016C3.26016 11.1 2.16016 11.2 1.50016 10.97C-0.319843 10.33 0.130157 7.54001 2.09016 7.53C8.67016 7.5 15.1802 7.5 21.6302 7.52C21.7002 7.52 21.7602 7.46 21.7702 7.39C21.7902 5.79 21.7802 4.21001 21.7602 2.68001C21.7402 1.35001 22.2702 0.380005 23.7402 0.380005C29.6802 0.380005 35.5502 0.380005 41.3502 0.390005C42.8702 0.390005 43.2602 1.51 43.2402 2.84C43.2102 4.45001 43.2102 5.98 43.2402 7.42C43.2402 7.47001 43.2802 7.5 43.3202 7.5C49.6902 7.55 56.0402 7.41 62.3902 7.52C62.9902 7.53 63.4402 7.61 63.7302 7.75C64.7202 8.24 64.9302 9.56001 64.2702 10.42C63.9302 10.86 63.4202 11.08 62.7402 11.09C61.9002 11.09 61.3202 11.09 61.0202 11.08H61.0102ZM39.6402 4.07C39.6402 4.00001 39.5902 3.95001 39.5202 3.95001H25.4802C25.4102 3.95001 25.3602 4.00001 25.3602 4.07V7.39C25.3602 7.46 25.4102 7.51 25.4802 7.51H39.5202C39.5902 7.51 39.6402 7.46 39.6402 7.39V4.07Z" fill="#FEFEFE"/>
<path d="M57.5401 11.1C57.2101 13.62 57.0101 15.71 56.9301 17.35C56.7301 21.67 56.4501 26.07 56.1101 30.55C55.9701 32.4 55.8501 34.12 55.7601 35.68C55.4701 40.61 55.1401 45.72 54.7501 51C54.5901 53.15 54.6301 55.39 54.1401 57.51C53.6301 59.73 52.3001 61.62 50.1501 63.18C49.9301 63.34 49.7101 63.51 49.4901 63.67C49.2801 63.83 49.0401 63.95 48.7701 64.04C48.2501 64.21 47.7701 64.43 47.3301 64.69C37.8301 64.69 28.3101 64.69 18.7501 64.69C16.2701 64.69 14.6501 64.57 13.8701 64.34C10.7701 63.41 8.24006 60.99 7.35006 57.86C7.16006 57.22 7.02006 56.09 6.91006 54.5C6.09006 42.24 5.27006 29.99 4.46006 17.73C4.25006 14.56 4.11006 12.35 4.06006 11.1H57.5401ZM25.3501 20.02C25.3501 19.04 24.5601 18.25 23.5801 18.25H23.5301C22.5501 18.25 21.7601 19.04 21.7601 20.02V52.18C21.7601 53.16 22.5501 53.95 23.5301 53.95H23.5801C24.5601 53.95 25.3501 53.16 25.3501 52.18V20.02ZM43.2201 20.02C43.2201 19.04 42.4301 18.25 41.4501 18.25H41.4001C40.4201 18.25 39.6301 19.04 39.6301 20.02V52.18C39.6301 53.16 40.4201 53.95 41.4001 53.95H41.4501C42.4301 53.95 43.2201 53.16 43.2201 52.18V20.03V20.02Z" fill="#F18021"/>
<path d="M61.0098 11.08C60.0198 25.98 59.0298 40.87 58.0398 55.76C57.7498 60.1 54.8698 63.3899 50.6998 64.52C49.9598 64.72 48.8398 64.78 47.3198 64.7C47.7498 64.44 48.2298 64.22 48.7598 64.05C49.0298 63.96 49.2698 63.84 49.4798 63.68C49.6998 63.52 49.9198 63.35 50.1398 63.19C52.2898 61.63 53.6198 59.74 54.1298 57.52C54.6198 55.39 54.5798 53.16 54.7398 51.01C55.1298 45.73 55.4698 40.62 55.7498 35.69C55.8398 34.12 55.9598 32.41 56.0998 30.56C56.4398 26.08 56.7198 21.68 56.9198 17.36C56.9998 15.72 57.1998 13.64 57.5298 11.11L60.9998 11.08H61.0098Z" fill="#B5611C"/>
<path d="M23.58 18.25H23.54C22.5625 18.25 21.77 19.0425 21.77 20.02V52.18C21.77 53.1575 22.5625 53.95 23.54 53.95H23.58C24.5576 53.95 25.35 53.1575 25.35 52.18V20.02C25.35 19.0425 24.5576 18.25 23.58 18.25Z" fill="#1C212E"/>
<path d="M41.4601 18.26H41.4101C40.4326 18.26 39.6401 19.0525 39.6401 20.03V52.19C39.6401 53.1676 40.4326 53.96 41.4101 53.96H41.4601C42.4377 53.96 43.2301 53.1676 43.2301 52.19V20.03C43.2301 19.0525 42.4377 18.26 41.4601 18.26Z" fill="#1C212E"/>
</g>
<defs>
<clipPath id="clip0_1998_5681">
<rect width="65" height="65" fill="white"/>
</clipPath>
</defs>
</svg>
