<svg width="21" height="20" viewBox="0 0 21 20" fill="none" xmlns="http://www.w3.org/2000/svg">
<g clip-path="url(#clip0_1939_4875)">
<path d="M3.725 0.7C5.025 0.1 6.425 0 7.825 0C10.625 0 12.625 0 13.825 0C14.225 0 14.625 0 15.225 0.1C16.825 0.3 18.425 1 19.425 2.4C20.425 3.7 20.625 5.5 20.625 7.2C20.625 8.9 20.625 10.7 20.625 12.4C20.625 12.9 20.625 13.2 20.625 13.3C20.525 15.6 19.925 18 17.725 19.2C17.225 19.5 16.625 19.7 16.025 19.8C15.225 20 14.325 20 13.525 20C10.425 20 8.425 20 7.425 20C7.125 20 6.625 20 6.325 19.9C4.425 19.7 2.625 19 1.625 17.3C0.825 16 0.625 14.4 0.625 12.8C0.625 11.1 0.625 9.3 0.625 7.6C0.625 7 0.625 6.8 0.625 6.7C0.725 4.3 1.325 1.8 3.725 0.7ZM4.525 18.1C5.525 18.5 6.725 18.6 7.825 18.6C9.725 18.6 11.525 18.6 13.425 18.6C15.125 18.6 17.225 18.4 18.225 16.9C19.025 15.8 19.225 14.2 19.225 12.8C19.225 10.9 19.225 9 19.225 7.1C19.225 5.5 18.925 3.4 17.525 2.4C16.325 1.6 14.825 1.4 13.425 1.4C11.725 1.4 9.925 1.4 8.225 1.4C6.825 1.4 5.325 1.4 4.125 2.1C3.325 2.6 2.725 3.3 2.425 4.2C2.125 5 2.025 5.9 2.025 6.8C2.025 8.9 2.025 10.9 2.025 13C2.025 14.9 2.425 17.2 4.525 18.1Z" fill="#FEFEFE"/>
<path d="M10.6248 5.90002C11.0248 5.90002 11.3248 6.20002 11.3248 6.60002V9.40002C11.3248 9.80002 11.0248 10.1 10.6248 10.1C10.2248 10.1 9.9248 9.80002 9.9248 9.40002V6.60002C9.9248 6.20002 10.2248 5.90002 10.6248 5.90002Z" fill="#F18021"/>
<path d="M13.7248 11.4L11.3248 13.8C11.2248 13.9 11.1248 14 10.9248 14H10.8248C10.7248 14 10.7248 14 10.6248 14C10.6248 14 10.5248 14 10.4248 14H10.3248C10.2248 14 10.0248 13.9 9.92479 13.8L7.52479 11.4C7.22479 11.1 7.12479 10.6 7.42479 10.3C7.72479 10 8.22479 10.1 8.52479 10.4L10.6248 12.5L12.7248 10.4C13.0248 10.1 13.5248 10 13.8248 10.3C14.0248 10.6 14.0248 11 13.7248 11.4Z" fill="#F18021"/>
</g>
<defs>
<clipPath id="clip0_1939_4875">
<rect width="20" height="20" fill="white" transform="translate(0.625)"/>
</clipPath>
</defs>
</svg>
