<svg width="25" height="25" viewBox="0 0 25 25" fill="none" xmlns="http://www.w3.org/2000/svg">
<path d="M5.47727 24.2866C3.05303 23.9243 1.11364 21.9917 0.75 19.576C0.75 19.3344 0.75 18.9721 0.75 18.4889C0.75 15.8317 0.75 13.2952 0.75 10.6379C0.75 10.2755 0.75 9.91317 0.871212 9.6716C1.11364 8.46374 1.7197 7.25589 2.56818 6.41039C2.56818 6.2896 2.81061 6.04803 3.29545 5.80646C5.11364 4.35703 6.93182 3.02839 8.75 1.57897C9.11364 1.3374 9.35606 1.09583 9.59848 0.97504C10.447 0.491898 11.4167 0.250327 12.5076 0.371112C13.5985 0.371112 14.6894 0.733469 15.5379 1.3374C17.8409 2.90761 20.1439 4.47782 22.3258 6.04803C23.2955 6.77275 24.0227 7.73903 24.3864 8.8261C24.6288 9.43003 24.75 10.034 24.75 10.6379C24.75 13.2952 24.75 15.8317 24.75 18.4889C24.75 18.9721 24.75 19.3344 24.75 19.576C24.3864 21.9917 22.447 23.9243 20.0227 24.2866C19.7803 24.2866 19.4167 24.2866 18.9318 24.2866C14.8106 24.2866 10.5682 24.2866 6.44697 24.2866C6.08333 24.4074 5.7197 24.2866 5.47727 24.2866ZM3.41667 7.85982C2.93182 8.46374 2.56818 9.18846 2.44697 9.91317C2.44697 10.1547 2.32576 10.3963 2.32576 10.6379C2.32576 13.2952 2.32576 15.8317 2.32576 18.4889C2.32576 18.9721 2.32576 19.3344 2.44697 19.576C2.81061 21.3878 4.38636 22.7164 6.20455 22.7164C10.447 22.7164 14.6894 22.7164 18.9318 22.7164C19.4167 22.7164 19.7803 22.7164 20.0227 22.5957C21.5985 22.2333 22.8106 21.0254 23.053 19.4552C23.053 19.2137 23.1742 18.8513 23.1742 18.3682C23.1742 15.8317 23.1742 13.2952 23.1742 10.7587C23.1742 10.3963 23.1742 10.1547 23.053 10.034C22.9318 9.18846 22.447 8.46374 21.9621 7.85982C21.8409 7.73903 21.4773 7.49746 21.1136 7.25589C18.9318 5.80646 16.8712 4.23625 14.6894 2.78682C13.5985 1.94132 12.2652 1.82054 10.9318 2.1829C10.5682 2.30368 10.2045 2.54525 9.96212 2.78682C8.02273 4.23625 6.08333 5.80646 4.14394 7.25589C3.7803 7.49746 3.65909 7.61824 3.41667 7.85982Z" fill="#FEFEFE"/>
</svg>
