<svg width="24" height="24" viewBox="0 0 24 24" fill="none" xmlns="http://www.w3.org/2000/svg">
<g clip-path="url(#clip0_712_5411)">
<path d="M4.72727 23.9463C2.30303 23.584 0.363636 21.6514 0 19.2357C0 18.9941 0 18.6318 0 18.1486C0 15.4913 0 12.9548 0 10.2976C0 9.93519 0 9.57284 0.121212 9.33127C0.363636 8.12341 0.969697 6.91556 1.81818 6.07006C1.81818 5.94927 2.06061 5.7077 2.54545 5.46613C4.36364 4.0167 6.18182 2.68806 8 1.23864C8.36364 0.997064 8.60606 0.755494 8.84848 0.634708C9.69697 0.151566 10.6667 -0.0900053 11.7576 0.0307803C12.8485 0.0307803 13.9394 0.393137 14.7879 0.997065C17.0909 2.56728 19.3939 4.13749 21.5758 5.7077C22.5455 6.43241 23.2727 7.3987 23.6364 8.48577C23.8788 9.08969 24 9.69362 24 10.2976C24 12.9548 24 15.4913 24 18.1486C24 18.6318 24 18.9941 24 19.2357C23.6364 21.6514 21.697 23.584 19.2727 23.9463C19.0303 23.9463 18.6667 23.9463 18.1818 23.9463C14.0606 23.9463 9.81818 23.9463 5.69697 23.9463C5.33333 24.0671 4.9697 23.9463 4.72727 23.9463ZM2.66667 7.51948C2.18182 8.12341 1.81818 8.84812 1.69697 9.57284C1.69697 9.81441 1.57576 10.056 1.57576 10.2976C1.57576 12.9548 1.57576 15.4913 1.57576 18.1486C1.57576 18.6318 1.57576 18.9941 1.69697 19.2357C2.06061 21.0475 3.63636 22.3761 5.45455 22.3761C9.69697 22.3761 13.9394 22.3761 18.1818 22.3761C18.6667 22.3761 19.0303 22.3761 19.2727 22.2553C20.8485 21.893 22.0606 20.6851 22.303 19.1149C22.303 18.8733 22.4242 18.511 22.4242 18.0278C22.4242 15.4913 22.4242 12.9548 22.4242 10.4183C22.4242 10.056 22.4242 9.81441 22.303 9.69362C22.1818 8.84813 21.697 8.12341 21.2121 7.51948C21.0909 7.3987 20.7273 7.15713 20.3636 6.91556C18.1818 5.46613 16.1212 3.89592 13.9394 2.44649C12.8485 1.60099 11.5152 1.48021 10.1818 1.84256C9.81818 1.96335 9.45455 2.20492 9.21212 2.44649C7.27273 3.89592 5.33333 5.46613 3.39394 6.91556C3.0303 7.15713 2.90909 7.27791 2.66667 7.51948Z" fill="#FEFEFE"/>
<path d="M12.0001 14.525C12.4849 14.525 12.8486 14.8874 12.8486 15.3705V18.7525C12.8486 19.2357 12.4849 19.598 12.0001 19.598C11.5152 19.598 11.1516 19.2357 11.1516 18.7525V15.3705C11.1516 14.8874 11.5152 14.525 12.0001 14.525Z" fill="#FEFEFE" fill-opacity="0.6"/>
</g>
<defs>
<clipPath id="clip0_712_5411">
<rect width="24" height="24" fill="white"/>
</clipPath>
</defs>
</svg>
