<svg width="70" height="68" viewBox="0 0 70 68" fill="none" xmlns="http://www.w3.org/2000/svg">
<path d="M70 30.7033C69.5469 31.3088 69.1286 31.9855 68.6057 32.5198C65.8171 35.4048 63.0286 38.2541 60.2051 41.1035C58.6366 42.6707 56.3011 42.1008 55.7783 40.035C55.4994 39.0021 55.8131 38.1473 56.5451 37.3993C57.9046 36.0103 59.264 34.6212 60.6583 33.1965C60.7977 33.054 60.9371 32.876 61.1811 32.591C60.7977 32.591 60.5886 32.591 60.3446 32.591C54.7674 32.591 49.1903 32.591 43.6131 32.591C42.4628 32.591 41.4868 31.8787 41.1382 30.8102C40.7897 29.7416 41.1034 28.495 42.0445 27.8895C42.5325 27.569 43.1948 27.3909 43.7874 27.3909C49.2948 27.3553 54.8023 27.3909 60.3097 27.3909C60.5537 27.3909 60.7977 27.3909 61.1463 27.3909C60.9371 27.1416 60.8326 26.9991 60.6931 26.8566C59.2988 25.432 57.9394 24.0429 56.5451 22.6182C55.3948 21.4428 55.3251 19.8401 56.4057 18.7715C57.4514 17.703 59.0548 17.7386 60.2051 18.914C63.168 21.9415 66.1308 24.9333 69.0589 27.9964C69.4423 28.3882 69.6514 28.8868 69.9651 29.3499V30.7389L70 30.7033Z" fill="#FEFEFE"/>
<path d="M17.2544 5.78723C19.3575 6.73951 21.2824 7.51544 23.1716 8.46772C25.5598 9.66689 27.9124 10.9013 29.766 12.8412C33.3305 16.5445 35.6118 20.9885 36.3247 26.032C37.4654 33.8266 37.5367 41.6565 37.2159 49.5217C37.1446 51.2499 37.0377 52.9781 36.9307 54.7416C39.4259 54.3889 41.422 53.1544 43.0974 51.3909C44.8796 49.5216 45.9134 47.2644 46.1629 44.6897C46.3055 43.0673 46.5193 41.4802 46.6976 39.893C46.8401 38.4822 48.0521 37.4947 49.5135 37.5652C50.8324 37.6358 52.0444 38.7997 51.9018 40.1399C51.7236 42.3619 51.5453 44.6544 51.0819 46.8412C49.7631 53.1544 45.8777 57.3163 39.7823 59.4324C38.8556 59.7499 37.8575 59.9262 36.8951 60.032C36.3247 60.1026 36.1822 60.3494 36.0752 60.808C35.4336 63.1358 34.2573 65.1814 32.2968 66.6627C30.5145 68.003 28.4828 68.2146 26.344 67.8266C20.0704 66.698 14.3672 64.2997 9.16293 60.6669C6.41824 58.7623 4.70726 55.976 3.24579 53.0839C1.53481 49.698 0.714969 46.0652 0.536742 42.3266C0.287224 37.8474 0.037706 33.3681 0.00206054 28.8889C-0.0335849 23.8453 0.39416 18.8017 1.214 13.8287C1.64175 11.2893 2.81805 9.06731 4.42209 7.05694C7.27373 3.4947 10.9809 1.51959 15.5078 0.8142C19.9635 0.144076 24.4548 -0.102812 28.9818 0.0382666C32.5107 0.144076 36.0039 0.496773 39.4259 1.34325C45.4143 2.82457 50.4403 8.43245 51.2958 14.5341C51.5453 16.3681 51.7592 18.2374 51.9731 20.0715C52.1513 21.7291 51.4384 22.8578 50.0126 23.2105C48.4798 23.5984 46.9471 22.5403 46.7689 20.9885C46.5193 18.9076 46.3411 16.7914 45.949 14.7105C45.1292 10.4076 41.3507 6.91586 37.0377 6.10465C31.9047 5.18764 26.7361 4.94075 21.5319 5.32872C20.1774 5.43453 18.8228 5.61088 17.2901 5.78723H17.2544Z" fill="#F18021"/>
</svg>
