<svg width="16" height="16" viewBox="0 0 16 16" fill="none" xmlns="http://www.w3.org/2000/svg">
<path d="M10.3143 10.1033C10.3143 10.0226 10.3143 9.94191 10.3143 9.8612C10.3143 6.87505 10.3143 3.8082 10.3143 0.822046C10.3143 0.176392 10.558 -0.0657283 11.2077 0.0149785C13.6442 0.176392 15.5934 1.87123 15.9183 4.29244C15.9183 4.53456 15.9995 4.77668 15.9995 5.0188C15.9995 5.26092 15.7558 5.50304 15.3498 5.50304C14.9437 5.50304 14.7 5.26092 14.7 4.85738C14.6188 3.16254 13.6442 1.79053 12.1011 1.38699C11.9386 1.30629 11.8574 1.30629 11.695 1.30629C11.695 1.38699 11.695 1.4677 11.695 1.62911C11.695 5.09951 11.695 8.6506 11.695 12.121C11.695 12.6859 11.695 13.2509 11.5326 13.8158C11.0453 15.1879 9.66457 16.0756 8.12145 15.9949C6.65954 15.9142 5.36007 14.7843 5.19763 13.2509C4.95398 11.8789 5.44128 10.749 6.65954 10.0226C7.79658 9.29626 9.01483 9.29626 10.2331 10.0226C10.2331 10.0226 10.2331 10.0226 10.3143 10.1033Z" fill="white"/>
<path d="M4.87348 1.5484C6.25417 1.5484 7.63486 1.5484 9.01555 1.5484C9.50285 1.5484 9.7465 1.87123 9.66529 2.35547C9.66529 2.59759 9.42163 2.83971 9.17798 2.92042C9.09677 2.92042 9.01555 2.92042 8.93433 2.92042C6.17295 2.92042 3.49279 2.92042 0.73141 2.92042C0.568976 2.92042 0.487759 2.92042 0.406542 2.83971C0.162891 2.759 0.000456784 2.43618 0.0816738 2.11335C0.162891 1.79052 0.406542 1.62911 0.73141 1.62911C0.975061 1.62911 1.21871 1.62911 1.46236 1.62911C2.5994 1.5484 3.73644 1.5484 4.87348 1.5484Z" fill="white"/>
<path d="M4.38618 4.29242C5.60443 4.29242 6.82269 4.29242 8.04094 4.29242C8.44703 4.29242 8.69068 4.53454 8.69068 4.93807C8.69068 5.18019 8.44703 5.42231 8.20338 5.42231C8.12216 5.42231 8.04094 5.42231 7.95973 5.42231C5.52322 5.42231 3.0867 5.42231 0.73141 5.42231C0.650193 5.42231 0.487759 5.42231 0.406542 5.34161C0.162891 5.2609 0.000456788 5.01878 0.0816738 4.77666C0.162891 4.53454 0.325325 4.29242 0.650193 4.29242C0.975061 4.29242 1.21871 4.29242 1.54358 4.29242C2.51819 4.29242 3.41157 4.29242 4.38618 4.29242Z" fill="white"/>
<path d="M2.92381 6.79437C3.65477 6.79437 4.38572 6.79437 5.03546 6.79437C5.36033 6.79437 5.60398 6.95579 5.68519 7.27861C5.76641 7.52073 5.68519 7.84356 5.44154 8.00497C5.27911 8.08568 5.11667 8.16639 5.03546 8.16639C3.57355 8.16639 2.19286 8.16639 0.730953 8.16639C0.324868 8.16639 0 7.92427 0 7.52073C0 7.1172 0.324868 6.87508 0.730953 6.87508C1.46191 6.79437 2.19286 6.79437 2.92381 6.79437Z" fill="white"/>
</svg>
