<svg width="179" height="117" viewBox="0 0 179 117" fill="none" xmlns="http://www.w3.org/2000/svg">
<g clip-path="url(#clip0_1437_6661)">
<path d="M79.0099 80.18C101.151 80.18 119.1 62.2311 119.1 40.09C119.1 17.9489 101.151 0 79.0099 0C56.8688 0 38.9199 17.9489 38.9199 40.09C38.9199 62.2311 56.8688 80.18 79.0099 80.18Z" fill="#E2E2E2"/>
<path d="M175.78 63.4102C174.15 65.8202 172.45 68.1802 170.78 70.5602C162.79 82.0002 154.81 93.4502 146.81 104.88C144.52 108.14 140.43 108.95 137.05 106.76C134.51 105.11 132.02 103.38 129.55 101.64C118.95 94.2002 108.37 86.7502 97.7899 79.2902C96.9399 78.6902 96.4399 78.7902 96.2199 79.8402C96.0199 79.2702 96.0298 78.7102 96.2798 78.1602C96.3298 76.8702 96.3899 75.5802 96.4399 74.2902C96.4299 73.4602 96.4998 72.6102 96.3798 71.8002C96.1498 70.2102 96.8198 69.5102 98.3398 69.0702C101.47 68.1802 104.55 67.1002 107.65 66.0802C109.66 65.4102 109.99 64.7102 109.83 62.6502C109.7 60.9102 109.59 59.1602 109.48 57.4102C109.29 54.3602 109.13 51.3102 108.91 48.2602C108.84 47.2402 109.24 46.8102 110.13 46.4302C112.97 45.2202 115.76 43.9102 118.57 42.6302C119.16 42.6002 119.65 42.3702 120.04 41.9202C120.21 41.8802 120.39 41.8602 120.56 41.8102C122.99 41.1002 124.54 39.9002 124.11 36.9402C123.84 35.1502 124.26 33.2602 124.27 31.4202C124.27 30.4002 124.4 29.8002 125.65 29.6802C127.48 29.5002 129.27 28.9902 131.09 28.7502C132.07 28.6202 132.22 28.2502 132.06 27.3402C131.83 26.0002 131.32 24.7002 131.52 23.3002C132.25 23.2102 132.74 23.7102 133.27 24.0802C136.43 26.2902 139.57 28.5302 142.73 30.7402C153.11 37.9802 163.5 45.1802 173.85 52.4502C177.96 55.3302 178.6 59.2102 175.78 63.4102Z" fill="#FEFEFE"/>
<path d="M73.84 96.0101C72.96 98.2101 72.26 100.49 71.49 102.73C70.94 102.66 70.44 102.81 69.92 102.95C54.8 107.01 39.68 111.07 24.55 115.09C19.63 116.4 16.07 114.32 14.78 109.5C10.52 93.5701 6.24999 77.6501 1.95999 61.7401C0.529993 56.4101 2.56999 52.9701 7.91999 51.5701C16.12 49.4301 24.3 47.2001 32.5 45.0101C40.86 42.7801 49.22 40.5601 57.59 38.3301C56.84 39.6801 56.15 41.0601 55.33 42.3601C54.81 43.1801 54.98 43.6001 55.77 44.0301C57.44 44.9401 59.06 45.9501 60.73 46.8501C61.51 47.2701 61.68 47.7301 61.38 48.5701C60.52 50.9801 59.82 53.4401 58.9 55.8201C58.48 56.9001 58.71 57.5301 59.51 58.2801C62.8 61.3901 66 64.5801 69.29 67.6701C70.14 68.4701 70.41 69.0801 69.84 70.2301C68.76 72.4101 67.92 74.6901 66.97 76.9301C66.44 77.2801 66.56 77.8201 66.59 78.3201C65.06 80.3301 64.44 82.7801 63.4 85.0301C63.03 85.8401 63.85 86.1601 64.33 86.5401C67.23 88.8201 70.11 91.1201 73.06 93.3301C74.07 94.0901 74.34 94.7901 73.84 96.0101Z" fill="#FEFEFE"/>
<path d="M69.9102 102.95C54.7902 107.01 39.6702 111.07 24.5502 115.1C19.6302 116.41 16.0702 114.33 14.7802 109.5C10.5102 93.58 6.24023 77.66 1.96023 61.74C0.530234 56.41 2.57023 52.97 7.91023 51.58C16.1102 49.44 24.3002 47.2 32.4902 45.02C40.8502 42.79 49.2202 40.57 57.5802 38.34C57.9002 37.85 58.2302 37.36 58.7902 36.5C55.1002 37.48 51.7902 38.36 48.4802 39.24C46.2502 39.83 43.9902 40.33 41.8102 41.05C41.8002 41.05 41.7902 41.05 41.7802 41.05C39.8802 41.73 37.9602 42.27 36.1002 42.56C26.4802 45.09 16.8802 47.65 7.27023 50.24C2.50023 51.52 0.300234 54.25 -0.00976562 59.1C0.0402344 59.21 0.0502344 59.33 -0.00976562 59.44C1.03023 63.44 2.06023 67.44 3.11023 71.44C5.64023 81.03 8.18023 90.61 10.7202 100.19C10.7802 100.41 10.8502 100.63 10.9102 100.84C11.0802 101.46 11.2502 102.07 11.4202 102.69C12.2702 105.64 12.9802 108.64 13.9902 111.54C15.3802 115.51 19.6502 117.78 23.7102 116.71C39.1402 112.65 54.5502 108.52 69.9702 104.43C70.8902 104.19 71.3702 103.65 71.4602 102.72C70.9202 102.64 70.4102 102.79 69.8902 102.93L69.9102 102.95Z" fill="#F18021"/>
<path d="M147.85 32.4401C156.15 38.2801 164.44 44.1201 172.74 49.9601C173.52 50.5101 174.3 51.0401 175.07 51.6001C179.31 54.7101 180.18 59.6301 177.16 63.9601C169.66 74.7201 162.12 85.4601 154.6 96.2101C154.26 96.6901 153.96 97.2001 153.65 97.7001C153.51 97.9201 153.37 98.1301 153.23 98.3501C151.64 100.28 150.23 102.34 148.93 104.47C147.24 106.64 145.51 108.68 142.56 109.24C140.32 109.67 138.21 109.36 136.42 108.11C123.05 98.8301 109.74 89.4701 96.41 80.1301C96.32 80.0701 96.28 79.9401 96.21 79.8501C96.43 78.8001 96.92 78.6901 97.78 79.3001C108.36 86.7601 118.94 94.2101 129.53 101.65C132.01 103.39 134.5 105.12 137.04 106.77C140.42 108.96 144.51 108.16 146.8 104.89C154.8 93.4601 162.78 82.0101 170.77 70.5801C172.44 68.2001 174.14 65.8401 175.77 63.4301C178.6 59.2301 177.95 55.3501 173.85 52.4701C163.5 45.2001 153.1 38.0001 142.73 30.7701C139.57 28.5601 136.43 26.3201 133.26 24.1001C132.74 23.7301 132.25 23.2401 131.51 23.3301C131.05 22.6601 131.06 21.8801 130.97 20.8101C136.71 24.7801 142.28 28.6201 147.84 32.4601L147.85 32.4401Z" fill="#F18021"/>
<path d="M152.87 49.8302C160.24 49.5102 166.74 55.2102 166.69 63.4002C166.64 72.1302 159.83 76.9502 152.76 76.9502C145.75 76.9502 139.3 70.6102 139.26 63.7102C139.21 56.1302 145.39 49.8302 152.87 49.8302ZM164.22 63.3302C164.22 57.0202 159.24 52.0602 152.95 52.0902C146.82 52.1202 141.88 57.0602 141.82 63.2102C141.76 69.4802 146.77 74.6102 152.97 74.6502C159.18 74.6902 164.22 69.6102 164.21 63.3302H164.22Z" fill="#E2E2E2"/>
<path d="M87.7398 22.6602C87.0898 31.5102 86.5098 40.0002 85.8298 48.4802C85.5998 51.3202 83.7398 53.0402 81.2598 53.0202C78.7798 53.0002 76.9798 51.2602 76.7598 48.4002C76.0898 39.9802 75.4398 31.5502 74.8998 23.1202C74.6298 18.9602 77.4398 15.8702 81.2598 15.8502C85.0898 15.8302 87.8498 18.8802 87.7498 22.6602H87.7398ZM86.3098 22.0302C86.3798 19.7002 84.2298 17.2702 81.2498 17.3002C78.3398 17.3302 76.2098 19.7202 76.3198 22.9002C76.3698 24.3802 76.5498 25.8602 76.6498 27.3502C77.1498 34.2302 77.6398 41.1102 78.1698 47.9902C78.2598 49.1902 78.5098 50.3602 79.6498 51.0902C81.7798 52.4402 84.1698 51.0002 84.3998 48.0702C85.0598 39.7102 85.6298 31.3402 86.2998 22.0302H86.3098Z" fill="#FEFEFE"/>
<path d="M86.3002 61.6899C86.2502 64.7799 83.6702 67.3199 80.5802 67.3199C77.4202 67.3199 74.8102 64.6699 74.8702 61.5099C74.9202 58.4199 77.5001 55.8799 80.5901 55.8799C83.7501 55.8799 86.3502 58.5199 86.3002 61.6899ZM80.6502 65.8699C82.9102 65.8299 84.8402 63.8799 84.8502 61.6199C84.8602 59.2899 82.8402 57.2899 80.5102 57.3299C78.2502 57.3699 76.3201 59.3199 76.3101 61.5799C76.3001 63.9099 78.3202 65.9099 80.6502 65.8699Z" fill="#FEFEFE"/>
<path d="M164.22 63.33C164.22 69.61 159.19 74.69 152.98 74.65C146.77 74.61 141.77 69.48 141.83 63.21C141.88 57.06 146.82 52.12 152.96 52.09C159.25 52.06 164.23 57.01 164.23 63.33H164.22Z" fill="#F18021"/>
<path d="M86.3102 22.0301C85.6402 31.3501 85.0702 39.7101 84.4102 48.0701C84.1802 51.0001 81.7902 52.4301 79.6602 51.0901C78.5202 50.3701 78.2702 49.1901 78.1802 47.9901C77.6602 41.1101 77.1702 34.2301 76.6602 27.3501C76.5502 25.8701 76.3802 24.3901 76.3302 22.9001C76.2202 19.7101 78.3502 17.3201 81.2602 17.3001C84.2402 17.2701 86.3902 19.7001 86.3202 22.0301H86.3102Z" fill="#F18021"/>
<path d="M80.6501 65.8702C78.3201 65.9102 76.3001 63.9102 76.3101 61.5802C76.3201 59.3202 78.2501 57.3702 80.5101 57.3302C82.8401 57.2902 84.8601 59.2902 84.8501 61.6202C84.8401 63.8802 82.9101 65.8302 80.6501 65.8702Z" fill="#F18021"/>
<path d="M22.2998 115.13C22.2998 115.13 33.5698 76.9799 37.6298 70.2299C37.6298 70.2299 40.7398 62.4599 43.3598 61.1199C43.8198 60.8899 44.1698 60.4899 44.4498 60.0599C46.0498 57.5499 52.1798 51.7999 68.1598 73.0999L68.3798 73.4299L66.9498 76.9399L66.6298 77.5999L66.5698 78.3299C66.5698 78.3299 65.6698 79.5299 65.6598 79.7299C65.6598 79.7299 64.5798 81.6599 63.5598 84.6099C63.5598 84.6099 63.2198 85.1999 63.2698 85.4199C63.2698 85.4199 63.2898 85.7399 63.5298 85.9799L65.3898 87.4299L69.9998 91.0199L73.4198 93.6599C73.4198 93.6599 74.3998 94.3699 73.9198 95.6599C73.9198 95.6599 72.9698 98.2899 72.9298 98.3899L71.4598 102.75L24.7898 114.98L22.5798 115.81L22.3198 115.26" fill="#898B92"/>
<path d="M112.61 89.4401L118.3 62.7201C118.3 62.7201 118.21 59.6501 117.9 59.3101C117.59 58.9701 117.01 59.0601 116.64 59.1301C116.27 59.2001 115.23 59.5301 115.23 59.5301L113.82 60.7601L109.95 64.0101L109.8 64.0901C109.8 64.0901 109.72 64.8101 109.34 65.1701C109.34 65.1701 108.67 65.8301 107.58 66.0901L102.7 67.7101L97.6798 69.2701C97.6798 69.2701 96.3298 69.7001 96.3498 71.0701C96.3498 71.0701 96.4898 73.3501 96.4398 73.5701L96.2798 78.1601L103.31 83.2001L112.66 89.7601L112.62 89.4301L112.61 89.4401Z" fill="#898B92"/>
</g>
<defs>
<clipPath id="clip0_1437_6661">
<rect width="178.95" height="116.98" fill="white"/>
</clipPath>
</defs>
</svg>
