<svg width="62" height="62" viewBox="0 0 62 62" fill="none" xmlns="http://www.w3.org/2000/svg">
<path d="M31.0002 41C35.2002 41 39.4002 41 43.6002 41C45.2002 41 46.4002 40 46.6002 38.4C46.6002 37.6 46.4002 36.8 45.8002 36.2C43.4002 34 42.4002 31.4 42.4002 28.2C42.4002 26.6 42.4002 25 42.2002 23.4C41.6002 18.8 37.6002 14.8 33.0002 14.2C30.4002 13.8 28.2002 14.2 25.8002 15.2C25.0002 15.6 24.2002 15.4 23.8002 14.6C23.4002 13.8 23.8002 13 24.6002 12.6C32.8002 8.4 42.8002 13 44.8002 22.2C45.0002 23.4 45.0002 24.4 45.2002 25.6C45.2002 26.8 45.2002 28.2 45.4002 29.4C45.6002 31 46.4002 32.4 47.6002 33.6C51.0002 36.6 49.6002 41.8 46.0002 43.2C45.4002 43.4 44.6002 43.6 43.8002 43.6C42.6002 43.6 41.4002 43.6 40.2002 43.6C39.8002 43.6 39.6002 43.8 39.4002 44.2C38.6002 47.8 35.2002 50.6 31.4002 50.8C27.6002 51 23.8002 48.2 23.0002 44.4C22.8002 43.8 22.8002 43.8 22.2002 43.8C21.0002 43.8 19.8002 43.8 18.8002 43.8C16.4002 43.8 14.2002 42.4 13.4002 40.2C12.4002 38 13.0002 35.6 14.8002 33.8C16.4002 32.2 17.2002 30.4 17.2002 28.2C17.2002 26.4 17.2002 24.8 17.4002 23C17.4002 22 17.8002 21.2 18.2002 20.2C18.4002 19.4 19.2002 19 20.0002 19.4C20.8002 19.6 21.2002 20.4 20.8002 21.2C19.8002 22.8 19.6002 24.4 19.6002 26C19.6002 27.4 19.6002 28.8 19.4002 30.2C19.2002 32.6 18.0002 34.4 16.2002 36C15.4002 36.8 15.0002 38 15.6002 39.2C16.0002 40.2 17.0002 41 18.2002 41C22.6002 41 26.8002 41 31.0002 41ZM36.4002 43.8C32.8002 43.8 29.2002 43.8 25.4002 43.8C26.0002 46.2 28.4002 48.2 31.0002 48C33.6002 48 36.2002 46 36.4002 43.8Z" fill="#FEFEFE"/>
<path d="M21.6003 15.2C22.4003 15.2 23.0003 15.8 23.0003 16.6C23.0003 17.4 22.2003 18.4 21.4003 18.6C20.6003 18.6 19.8003 18 19.8003 17C19.8003 16.2 20.8003 15.2 21.6003 15.2Z" fill="#FEFEFE"/>
<circle cx="22" cy="17" r="5" fill="#F18021"/>
</svg>
