<svg width="20" height="20" viewBox="0 0 20 20" fill="none" xmlns="http://www.w3.org/2000/svg">
<path d="M3.86233 14.9263L3.86398 14.9282C5.00631 16.2157 6.34827 17.2874 7.8107 18.2296L3.86233 14.9263ZM3.86233 14.9263C3.19957 14.1867 2.66655 13.4064 2.36552 12.4956C2.1572 11.8422 2.09914 11.1508 2.04898 10.3986C1.92127 8.23521 2.01991 6.09773 2.41104 3.97409C2.42578 3.89967 2.43718 3.8219 2.44644 3.75875C2.44832 3.74596 2.45011 3.73376 2.45182 3.72232C2.46327 3.64568 2.47308 3.58824 2.48581 3.53814C2.50974 3.44395 2.53428 3.41515 2.5558 3.39762L2.55584 3.39767M3.86233 14.9263L2.55584 3.39767M2.55584 3.39767L2.56203 3.39246M2.55584 3.39767L2.56203 3.39246M2.56203 3.39246C2.7698 3.21749 2.89796 3.11616 3.02422 3.07225L3.02425 3.07232M2.56203 3.39246L3.02425 3.07232M3.02425 3.07232L3.03252 3.06928M3.02425 3.07232L3.03252 3.06928M3.03252 3.06928C4.41616 2.5605 5.79461 2.05991 7.1727 1.55944C8.01445 1.25376 8.85607 0.948119 9.69865 0.640693C9.92946 0.559697 10.131 0.559769 10.3619 0.64091M3.03252 3.06928L14.589 2.14987M16.6809 14.3088L16.6822 14.307C17.1491 13.6942 17.5191 13.1 17.6844 12.4307C17.814 11.903 17.8717 11.3385 17.9216 10.7492C18.0389 9.26256 18.0099 7.78136 17.8819 6.2837M16.6809 14.3088L18.38 6.24M16.6809 14.3088C15.9156 15.3228 14.9811 16.1924 13.9628 16.9854L16.6809 14.3088ZM17.8819 6.2837C17.8818 6.28333 17.8818 6.28297 17.8818 6.28261L18.38 6.24M17.8819 6.2837C17.8819 6.28373 17.8819 6.28376 17.8819 6.28379L18.38 6.24M17.8819 6.2837C17.8029 5.38508 17.6941 4.48486 17.5652 3.58249M18.38 6.24C18.3 5.33 18.19 4.42 18.06 3.51M17.5652 3.58249C17.5653 3.58288 17.5654 3.58327 17.5654 3.58366L18.06 3.51M17.5652 3.58249C17.5346 3.38007 17.387 3.2219 17.0382 3.08579C16.2176 2.76556 15.4029 2.44764 14.589 2.14987M17.5652 3.58249C17.5652 3.5819 17.5651 3.5813 17.565 3.58071L18.06 3.51M18.06 3.51L14.589 2.14987M14.589 2.14987C14.5893 2.14997 14.5896 2.15008 14.5899 2.15019L14.76 1.68L14.5882 2.14956C14.5884 2.14966 14.5887 2.14977 14.589 2.14987ZM14.589 2.14987C13.886 1.8956 13.1828 1.64623 12.4779 1.39625L12.4771 1.396C11.7733 1.1464 11.0677 0.896197 10.3619 0.64091M10.3619 0.64091C10.3624 0.641104 10.363 0.641299 10.3636 0.641495L10.53 0.17L10.3599 0.640188C10.3606 0.640429 10.3612 0.640669 10.3619 0.64091ZM10.1094 19.43H9.93635C9.88922 19.4116 9.84927 19.3969 9.81375 19.3837C9.72514 19.3509 9.66416 19.3284 9.58817 19.2859C9.44432 19.202 9.30152 19.1196 9.15971 19.0378C8.70028 18.7726 8.25126 18.5134 7.81077 18.2297L10.1094 19.43ZM10.1094 19.43C11.4877 18.7966 12.7387 17.9375 13.9627 16.9855L10.1094 19.43ZM8.77687 13.0314L8.78459 13.048L8.79349 13.0639C9.0981 13.609 9.75012 13.8664 10.3281 13.7258L10.3284 13.7258C10.9288 13.5793 11.4021 13.0874 11.4197 12.4156C11.4396 11.8751 11.4303 11.3275 11.4207 10.8036C12.4222 10.1192 12.7797 8.8106 12.275 7.70272C11.7667 6.58707 10.5312 5.97922 9.33445 6.31871C8.82773 6.46031 8.3952 6.71093 8.07201 7.08122C7.74843 7.45196 7.55956 7.91393 7.494 8.43657C7.42809 8.94181 7.4955 9.41683 7.70321 9.84198C7.89827 10.2412 8.20404 10.5701 8.58734 10.8325C8.58407 10.9873 8.58607 11.1464 8.58792 11.2943C8.58896 11.3772 8.58996 11.4567 8.58996 11.53V12.03H8.59144C8.59091 12.1452 8.593 12.2631 8.60113 12.3742C8.61627 12.6088 8.68704 12.839 8.77687 13.0314ZM8.66976 10.8884C8.66974 10.8884 8.66926 10.888 8.66839 10.8872L8.66976 10.8884Z" fill="#FEFEFE" stroke="#FEFEFE"/>
</svg>
