<svg width="24" height="24" viewBox="0 0 24 24" fill="none" xmlns="http://www.w3.org/2000/svg">
<g clip-path="url(#clip0_1731_7861)">
<path d="M11.8851 22.0015L11.3926 21.8407C11.0609 21.7301 10.7393 21.6195 10.4176 21.4889C8.17626 20.5943 6.43744 19.3681 5.11071 17.76C3.70357 16.0613 3 14.1215 3 11.9605V5.81938C3 5.16606 3.22112 4.94494 3.86439 4.93489C5.5831 4.89469 7.22142 4.60321 8.71901 4.0504C9.57335 3.73882 10.2166 3.39709 10.7493 2.97495C10.89 2.86439 11.0207 2.73372 11.1514 2.60306C11.2217 2.5327 11.3021 2.45229 11.3825 2.38194C11.473 2.30153 11.5634 2.22112 11.6539 2.14071L11.8147 2H12.2268L12.3977 2.14071C12.4982 2.22112 12.5886 2.30153 12.6691 2.39199C13.1414 2.94479 13.7546 3.36693 14.6591 3.76897C15.7949 4.28157 17.0312 4.61326 18.4383 4.78412C18.9007 4.84443 19.363 4.86453 19.8354 4.89469L20.2978 4.92484C20.8003 4.95499 21.0415 5.21632 21.0415 5.71887V7.76927C21.0415 9.1362 21.0415 10.4931 21.0415 11.86C21.0516 14.4833 20.0565 16.775 18.0564 18.6846C16.5286 20.142 14.6893 21.1974 12.4178 21.901C12.3776 21.911 12.257 21.9613 12.257 21.9613L12.1464 21.9914H11.875L11.8851 22.0015ZM4.37699 7.93008C4.37699 9.29702 4.37699 10.6539 4.37699 12.0108C4.37699 12.3827 4.39709 12.7144 4.43729 13.0159C4.65841 14.6642 5.40219 16.1417 6.64851 17.4182C8.00539 18.8153 9.71406 19.8405 11.8549 20.5441C11.9152 20.5642 11.9655 20.5742 12.0157 20.5742C12.066 20.5742 12.1263 20.5742 12.1766 20.5441L12.5384 20.4134C12.7093 20.3531 12.8701 20.3029 13.0409 20.2325C15.0712 19.4284 16.6392 18.3429 17.8353 16.9157C19.0112 15.5085 19.6243 13.9406 19.6545 12.252C19.6746 10.8248 19.6746 9.39753 19.6645 7.97029V6.31188C19.4334 6.28172 19.2223 6.26162 19.0112 6.23147C18.4182 6.16111 17.8051 6.0807 17.2121 5.97014C14.9104 5.51785 13.3023 4.81428 12.0258 3.69862C11.9454 3.75892 11.865 3.81923 11.7946 3.87954C11.5333 4.08055 11.2619 4.28157 10.9805 4.45244C9.43263 5.38718 7.60335 5.95004 5.25142 6.21137C5.0102 6.24152 4.77903 6.25157 4.5378 6.27167H4.37699V7.90998V7.93008Z" fill="#FEFEFE"/>
<path d="M10.0056 10.9764C10.0056 10.6447 10.0056 10.3332 10.0056 10.0216C10.0257 9.07679 10.6187 8.31291 11.4831 8.09179C12.7294 7.78021 13.8953 8.69485 13.9255 10.0015C13.9255 10.3131 13.9255 10.6246 13.9255 10.9664C14.0662 10.9664 14.2069 10.9664 14.3476 10.9664C14.7094 10.9664 14.9004 11.1573 14.9004 11.5192C14.9004 12.7856 14.9004 14.052 14.9004 15.3285C14.9004 15.6903 14.7195 15.8713 14.3577 15.8713C12.7596 15.8713 11.1715 15.8713 9.57339 15.8713C9.21156 15.8713 9.03064 15.6903 9.03064 15.3285C9.03064 14.0621 9.03064 12.7957 9.03064 11.5192C9.03064 11.1573 9.22161 10.9664 9.58344 10.9664C9.71411 10.9664 9.84477 10.9664 10.0056 10.9664V10.9764ZM10.0156 11.9715V14.8863H13.9154V11.9715H10.0156ZM11.0006 10.9664H12.9505C12.9505 10.6146 12.9505 10.2829 12.9505 9.94117C12.9304 9.43862 12.5083 9.03658 12.0057 9.01648C11.5032 9.00643 11.0408 9.38837 11.0107 9.88087C10.9805 10.2327 11.0107 10.5945 11.0107 10.9563L11.0006 10.9664Z" fill="#FEFEFE"/>
</g>
<defs>
<clipPath id="clip0_1731_7861">
<rect width="20" height="20" fill="white" transform="translate(2 2)"/>
</clipPath>
</defs>
</svg>
