<svg width="24" height="24" viewBox="0 0 24 24" fill="none" xmlns="http://www.w3.org/2000/svg">
<g clip-path="url(#clip0_1719_7983)">
<g clip-path="url(#clip1_1719_7983)">
<path d="M15.8204 12.2843L10.6522 14.943C10.4045 15.0879 10 14.943 10 14.6605V9.40834C10 9.11856 10.322 8.90123 10.5697 9.04612L15.8204 11.6396C16.0599 11.7772 16.0599 12.1395 15.8204 12.2843Z" fill="#FEFEFE"/>
<path d="M13.019 6.08302C8.90938 5.41159 5.412 8.91142 6.08296 13.0155C6.49392 15.5082 8.49842 17.5141 10.981 17.917C15.0906 18.5884 18.588 15.0886 17.917 10.9761C17.5061 8.48338 15.5016 6.47749 13.019 6.07463V6.08302ZM13.0022 17.0441C9.38744 17.7323 6.27586 14.6186 6.96359 11.0013C7.3494 8.97857 8.97648 7.35035 10.9978 6.96427C14.6126 6.27606 17.7241 9.38982 17.0364 13.0071C16.6506 15.0298 15.0235 16.6581 13.0022 17.0441Z" fill="#FEFEFE"/>
<path d="M7.29001 4.82001C7.49001 4.82001 7.56001 4.82001 7.66001 4.82001C8.06001 4.82001 8.36001 5.12001 8.36001 5.52001C8.36001 5.92001 8.06001 6.22001 7.66001 6.22001H5.48001C5.08001 6.22001 4.88001 5.92001 4.88001 5.52001V3.33001C4.88001 2.93001 5.18001 2.63001 5.58001 2.63001C5.98001 2.63001 6.28001 2.93001 6.28001 3.33001V3.73001C6.48001 3.63001 6.68001 3.53001 6.78001 3.43001C12.64 -0.149994 20.48 3.33001 21.68 10.08C22.67 15.44 19.2 20.61 13.83 21.6C8.77001 22.59 3.70001 19.51 2.31001 14.55C2.11001 13.66 2.01001 12.86 2.01001 11.97C2.01001 11.47 2.31001 11.18 2.71001 11.18C3.11001 11.18 3.41001 11.48 3.41001 11.97C3.51001 15.84 5.99001 19.12 9.77001 20.11C14.44 21.3 19.2 18.42 20.2 13.66C21.2 8.90001 18.21 4.42001 13.45 3.43001C11.27 3.03001 9.28001 3.43001 7.39001 4.52001L7.32001 4.66001C7.34001 4.70001 7.32001 4.68001 7.32001 4.83001L7.29001 4.82001Z" fill="#FEFEFE"/>
</g>
</g>
<defs>
<clipPath id="clip0_1719_7983">
<rect width="20" height="20" fill="white" transform="translate(2 2)"/>
</clipPath>
<clipPath id="clip1_1719_7983">
<rect width="19.83" height="19.79" fill="white" transform="translate(2 2)"/>
</clipPath>
</defs>
</svg>
