<svg width="20" height="20" viewBox="0 0 20 20" fill="none" xmlns="http://www.w3.org/2000/svg">
<g clip-path="url(#clip0_1620_12287)">
<g clip-path="url(#clip1_1620_12287)">
<path d="M10 3.30013C6.2 3.30013 3 6.40013 3 10.3001C3 14.2001 6.1 17.3001 10 17.3001C13.8 17.3001 17 14.2001 17 10.3001C17 6.40013 13.8 3.20013 10 3.30013ZM14.4 10.6001L8.1 14.3001C7.8 14.5001 7.3 14.3001 7.3 13.9001V6.60013C7.3 6.20013 7.7 5.90013 8 6.10013L14.4 9.70013C14.7 9.90013 14.7 10.4001 14.4 10.6001Z" fill="#FEFEFE"/>
<path d="M5.3 2.90002C5.5 2.90002 5.6 2.90002 5.7 2.90002C6.1 2.90002 6.4 3.20002 6.4 3.60002C6.4 4.00002 6.1 4.30002 5.7 4.30002C5 4.30002 4.2 4.30002 3.5 4.30002C3.1 4.30002 2.9 4.00002 2.9 3.60002C2.9 2.90002 2.9 2.20002 2.9 1.40002C2.9 1.00002 3.2 0.700022 3.6 0.700022C4 0.700022 4.3 1.00002 4.3 1.40002C4.3 1.50002 4.3 1.60002 4.3 1.80002C4.5 1.70002 4.7 1.60002 4.8 1.50002C10.7 -2.09998 18.6 1.40002 19.8 8.20002C20.8 13.6 17.3 18.8 11.9 19.8C6.8 20.8 1.7 17.7 0.3 12.7C0.1 11.8 0 11 0 10.1C0 9.60002 0.3 9.30002 0.7 9.30002C1.1 9.30002 1.4 9.60002 1.4 10.1C1.5 14 4 17.3 7.8 18.3C12.5 19.5 17.3 16.6 18.3 11.8C19.3 7.00002 16.3 2.50002 11.5 1.50002C9.3 1.10002 7.3 1.50002 5.4 2.60002C5.4 2.80002 5.4 2.80002 5.3 2.90002C5.4 2.80002 5.4 2.80002 5.3 2.90002Z" fill="#FEFEFE"/>
</g>
</g>
<defs>
<clipPath id="clip0_1620_12287">
<rect width="20" height="20" fill="white"/>
</clipPath>
<clipPath id="clip1_1620_12287">
<rect width="20" height="20" fill="white"/>
</clipPath>
</defs>
</svg>
