<svg width="19" height="20" viewBox="0 0 19 20" fill="none" xmlns="http://www.w3.org/2000/svg">
<g clip-path="url(#clip0_375_1672)">
<path d="M14.36 19.97C14.06 19.89 13.75 19.85 13.46 19.74C11.56 19.05 10.55 17.05 11.12 15.11C11.15 15.01 11.18 14.94 11.05 14.87C9.60997 14.06 8.16997 13.24 6.72997 12.42C6.70997 12.42 6.68997 12.41 6.66997 12.4C5.79997 13.38 4.70997 13.85 3.38997 13.73C2.46997 13.65 1.68997 13.26 1.05997 12.59C-0.350028 11.09 -0.360028 8.87 1.05997 7.38C1.82997 6.57 2.78997 6.19 3.90997 6.23C5.01997 6.27 5.92997 6.75 6.65997 7.58C6.71997 7.55 6.76997 7.52 6.81997 7.49C8.20997 6.7 9.59997 5.91 10.99 5.13C11.12 5.05 11.15 4.99 11.11 4.84C10.51 2.87 11.65 0.749996 13.61 0.159996C15.61 -0.430004 17.71 0.679996 18.31 2.65C18.99 4.87 17.54 7.17 15.22 7.49C13.96 7.67 12.87 7.27 11.99 6.36C11.84 6.21 11.75 6.2 11.57 6.3C10.21 7.08 8.84997 7.85 7.48997 8.62C7.33997 8.7 7.31997 8.78 7.36997 8.94C7.57997 9.63 7.57997 10.33 7.36997 11.03C7.34997 11.1 7.32997 11.17 7.30997 11.24C7.36997 11.28 7.41997 11.31 7.47997 11.34C8.85997 12.13 10.25 12.91 11.63 13.7C11.76 13.77 11.83 13.77 11.94 13.66C13.93 11.54 17.36 12.29 18.29 15.05C19.02 17.23 17.54 19.61 15.25 19.93C15.19 19.93 15.14 19.96 15.08 19.97H14.34H14.36ZM6.21997 10C6.23997 8.66 5.15997 7.56 3.79997 7.53C2.46997 7.51 1.33997 8.6 1.31997 9.94C1.29997 11.3 2.37997 12.4 3.73997 12.43C5.07997 12.45 6.19997 11.36 6.20997 10H6.21997ZM12.28 3.76C12.28 5.11 13.36 6.2 14.71 6.21C16.06 6.22 17.17 5.13 17.17 3.77C17.17 2.42 16.09 1.33 14.74 1.32C13.38 1.32 12.28 2.4 12.28 3.76ZM12.28 16.2C12.28 17.55 13.37 18.64 14.72 18.64C16.08 18.64 17.18 17.55 17.18 16.19C17.18 14.84 16.09 13.75 14.74 13.75C13.39 13.75 12.28 14.84 12.29 16.2H12.28Z" fill="#FEFEFE"/>
</g>
<defs>
<clipPath id="clip0_375_1672">
<rect width="18.5" height="19.97" fill="white"/>
</clipPath>
</defs>
</svg>
