<svg width="24" height="24" viewBox="0 0 24 24" fill="none" xmlns="http://www.w3.org/2000/svg">
<g clip-path="url(#clip0_1730_7853)">
<path d="M2 12.7053C2 11.9519 2 11.1985 2 10.435C2 10.3748 2.02009 10.3045 2.03014 10.2442C2.14063 9.07895 2.21095 7.9137 2.36163 6.74846C2.60271 4.75951 4.24008 2.92124 6.18885 2.47925C7.05274 2.27834 7.94676 2.19798 8.83074 2.11762C11.3521 1.90667 13.8634 1.97699 16.3646 2.34866C18.3737 2.63997 20.1818 4.21707 20.664 6.19597C20.9553 7.39135 21.0256 8.61687 21.0859 9.83234C21.1662 11.3492 21.1462 12.866 21.0156 14.3728C20.9955 14.5435 21.0357 14.6942 21.1462 14.8348C22.9242 17.306 21.789 20.7917 18.896 21.756C18.5746 21.8665 18.233 21.9167 17.8915 21.9971H17.0276C17.0276 21.9971 16.9975 21.977 16.9774 21.9669C16.1336 21.8765 15.3802 21.5651 14.7072 21.0629C14.657 21.0227 14.5665 21.0126 14.4862 21.0227C14.1145 21.0428 13.7428 21.0729 13.3812 21.093C11.1512 21.2035 8.92114 21.1131 6.7112 20.7917C4.7122 20.5003 2.81366 18.7927 2.43194 16.8037C2.24108 15.7891 2.18081 14.7545 2.06027 13.7299C2.03014 13.3883 2.02009 13.0468 2 12.7053ZM19.5992 13.4386C19.5992 13.4386 19.6092 13.3582 19.6092 13.3281C19.7097 11.2286 19.6092 9.13922 19.338 7.05986C19.117 5.39236 17.6705 4.05634 16.3546 3.85544C15.3702 3.70476 14.3656 3.59427 13.3712 3.53399C11.2115 3.40341 9.05173 3.49381 6.9121 3.8253C5.51582 4.03625 4.11954 5.27181 3.87845 6.6681C3.69764 7.7128 3.59719 8.77759 3.52687 9.84238C3.40633 11.8213 3.48669 13.8002 3.74787 15.759C3.83827 16.4823 4.00904 17.1653 4.46107 17.748C5.06379 18.5415 5.81718 19.1141 6.8217 19.2849C8.67002 19.5963 10.5384 19.6766 12.4068 19.6365C12.7484 19.6365 13.0899 19.6063 13.4415 19.5963C12.5876 17.6274 12.7484 15.7992 14.2752 14.2723C15.8021 12.7454 17.6303 12.5747 19.5892 13.4285L19.5992 13.4386ZM17.4696 20.5104C19.1472 20.5104 20.5133 19.1442 20.5133 17.4667C20.5133 15.7891 19.1472 14.423 17.4696 14.423C15.7921 14.423 14.4259 15.7992 14.4259 17.4667C14.4259 19.1442 15.7921 20.5104 17.4696 20.5104Z" fill="#FEFEFE"/>
<path d="M18.213 16.4823C18.213 16.6932 18.213 16.9142 18.213 17.1252C18.2029 17.527 17.8815 17.8384 17.4797 17.8484C17.0879 17.8484 16.7464 17.5471 16.7263 17.1452C16.7162 16.7033 16.7162 16.2613 16.7263 15.8193C16.7363 15.4175 17.0779 15.1161 17.4696 15.1262C17.8614 15.1262 18.1828 15.4376 18.2029 15.8394C18.2029 16.0503 18.2029 16.2713 18.2029 16.4823H18.213Z" fill="#FEFEFE"/>
<path d="M18.2231 19.0639C18.2231 19.6867 18.0925 19.8073 17.4797 19.8073C16.8469 19.8073 16.7263 19.6867 16.7263 19.0539C16.7263 18.421 16.8569 18.3005 17.4797 18.3005C18.1025 18.3005 18.2231 18.4311 18.2231 19.0639Z" fill="#FEFEFE"/>
<path d="M11.5529 16.5827C11.6132 17.0347 11.3721 17.4366 10.9603 17.547C10.8598 17.5772 10.7594 17.5872 10.669 17.5872H6.6308C6.07831 17.5872 5.70664 17.2055 5.72673 16.6631C5.72673 16.201 6.0984 15.8293 6.54039 15.8193H10.7493C11.1612 15.8193 11.5027 16.1508 11.5529 16.5727V16.5827Z" fill="#FEFEFE"/>
<path d="M13.4616 12.2432C13.5319 12.6852 13.2105 13.077 12.668 13.1875C12.5374 13.2176 12.4068 13.2276 12.2763 13.2276H6.92217C6.19891 13.2276 5.7067 12.856 5.72679 12.3336C5.74688 11.8816 6.219 11.52 6.81167 11.52H12.3868C12.9292 11.52 13.3913 11.8414 13.4616 12.2533V12.2432Z" fill="#FEFEFE"/>
<path d="M17.2988 8.94835L17.4596 9.76202C17.2687 9.86247 16.8367 9.96292 16.2742 9.96292C14.6971 9.96292 13.8734 8.97849 13.8734 7.66257C13.8734 6.09552 14.9884 5.23163 16.3747 5.23163C16.9171 5.23163 17.3189 5.33208 17.5098 5.42249L17.2988 6.24619C17.0879 6.15579 16.7966 6.07543 16.4249 6.07543C15.6012 6.07543 14.9683 6.56764 14.9683 7.59225C14.9683 8.50636 15.5208 9.07894 16.4349 9.07894C16.7564 9.07894 17.0979 9.01867 17.2988 8.92826V8.94835Z" fill="#FEFEFE"/>
<path d="M8.93117 5.31201V6.1759H7.67552V9.89262H6.63082V6.1759H5.39526V5.31201H8.93117Z" fill="#FEFEFE"/>
<path d="M12.7885 8.99858C13.2004 8.54655 13.4314 7.94383 13.5519 7.26076H12.6177C12.5575 7.67261 12.4269 8.08447 12.236 8.37578C12.015 8.14474 11.7338 7.8032 11.4726 7.51189V7.4918C12.1054 7.17035 12.3767 6.77859 12.3767 6.30647C12.3767 5.64348 11.8443 5.23163 11.1311 5.23163C10.2169 5.23163 9.7649 5.86448 9.7649 6.43705C9.7649 6.7585 9.91558 7.10004 10.1064 7.32103V7.35117C9.58409 7.62239 9.24255 8.03424 9.24255 8.66709C9.24255 9.29994 9.72472 9.96292 10.8297 9.96292C11.3822 9.96292 11.784 9.79215 12.0954 9.56111C12.1958 9.68165 12.2863 9.78211 12.3967 9.88256H13.6022C13.3109 9.57116 13.0497 9.27985 12.7885 8.98853V8.99858ZM11.1009 5.87452C11.3721 5.87452 11.5027 6.11561 11.5027 6.32656C11.5027 6.58773 11.332 6.76854 11.0005 6.99958C10.7996 6.77859 10.679 6.56764 10.679 6.3366C10.679 6.10556 10.8297 5.87452 11.1009 5.87452ZM10.9804 9.21957C10.5082 9.21957 10.2169 8.88808 10.2169 8.49632C10.2169 8.19496 10.3877 8.0041 10.5786 7.86347C10.9502 8.29542 11.3219 8.69722 11.6132 8.98853C11.4726 9.11912 11.2516 9.21957 10.9804 9.21957Z" fill="#FEFEFE"/>
</g>
<defs>
<clipPath id="clip0_1730_7853">
<rect width="20" height="20" fill="white" transform="translate(2 2)"/>
</clipPath>
</defs>
</svg>
