<svg width="20" height="20" viewBox="0 0 20 20" fill="none" xmlns="http://www.w3.org/2000/svg">
<g clip-path="url(#clip0_828_4058)">
<path d="M9.01995 5.71C8.80995 5.86 8.62995 6.07 8.62995 6.39C8.62995 6.81 8.93995 7.17 9.44995 7.17C9.73995 7.17 9.97995 7.06 10.1299 6.92C9.81995 6.61 9.41995 6.17 9.01995 5.71ZM9.57995 3.58C9.28995 3.58 9.12995 3.83 9.12995 4.08C9.12995 4.33 9.24995 4.55 9.46995 4.79C9.82995 4.54 10.0099 4.35 10.0099 4.07C10.0099 3.84 9.86995 3.58 9.57995 3.58ZM10.0099 4.07C10.0099 3.84 9.86995 3.58 9.57995 3.58C9.28995 3.58 9.12995 3.83 9.12995 4.08C9.12995 4.33 9.24995 4.55 9.46995 4.79C9.82995 4.54 10.0099 4.35 10.0099 4.07ZM9.01995 5.71C8.80995 5.86 8.62995 6.07 8.62995 6.39C8.62995 6.81 8.93995 7.17 9.44995 7.17C9.73995 7.17 9.97995 7.06 10.1299 6.92C9.81995 6.61 9.41995 6.17 9.01995 5.71ZM18.7099 4.67C18.4699 3.2 17.6599 2.1 16.4699 1.24C15.6999 0.69 14.8099 0.46 13.8899 0.34C12.2199 0.13 10.5499 0.0399996 8.86995 0.0799996C7.36995 0.11 5.85995 0.19 4.37995 0.5C2.37995 0.91 0.679946 2.76 0.419946 4.79C0.279946 5.94 0.199946 7.1 0.0999463 8.26C0.0999463 8.32 0.0799463 8.39 0.0699463 8.45V10.7C0.0899463 11.09 0.0999463 11.48 0.149946 11.87C0.249946 12.84 0.319946 13.82 0.499946 14.78C0.889946 16.76 2.78995 18.45 4.77995 18.74C6.66995 19 8.56995 19.11 10.4799 19.07C10.9599 19.06 11.4299 19.03 11.9199 19.01C10.1499 16.52 11.0699 13.72 12.4299 12.38C13.9099 10.94 16.6699 10.25 19.0099 11.92C19.0199 11.56 19.0399 11.22 19.0599 10.87C19.1299 8.79 19.0499 6.72 18.7099 4.67ZM3.44995 2.97H7.23995V3.9H5.88995V7.89H4.76995V3.9H3.44995V2.97ZM8.98995 15.74C8.88995 15.78 8.78995 15.79 8.69995 15.79H4.67995C4.12995 15.79 3.75995 15.31 3.77995 14.64C3.77995 14.06 4.14995 13.6 4.58995 13.59H8.77995C9.18995 13.6 9.52995 14 9.57995 14.53C9.63995 15.1 9.39995 15.6 8.98995 15.74ZM10.6899 11.41C10.5599 11.45 10.4299 11.46 10.2999 11.46H4.96995C4.24995 11.46 3.75995 10.98 3.77995 10.31C3.79995 9.73 4.26995 9.27 4.85995 9.26H10.4099C10.9499 9.26 11.4099 9.67 11.4799 10.2C11.5499 10.77 11.2299 11.27 10.6899 11.41ZM10.9699 7.89C10.8599 7.78 10.7599 7.67 10.6499 7.54C10.3199 7.79 9.87995 7.97 9.28995 7.97C8.09995 7.97 7.57995 7.26 7.57995 6.58C7.57995 5.9 7.94995 5.46 8.50995 5.17V5.14C8.29995 4.9 8.13995 4.54 8.13995 4.19C8.13995 3.57 8.62995 2.89 9.60995 2.89C10.3799 2.89 10.9499 3.33 10.9499 4.04C10.9499 4.54 10.6599 4.96 9.97995 5.31V5.33C10.2599 5.65 10.5599 6.01 10.7999 6.26C10.9999 5.95 11.1499 5.5 11.2099 5.06H12.2099C12.0799 5.8 11.8299 6.44 11.3899 6.93C11.6699 7.24 11.9499 7.56 12.2599 7.89H10.9699ZM15.3099 7.04C15.6499 7.04 16.0199 6.97 16.2399 6.88L16.4099 7.75C16.1999 7.86 15.7399 7.97 15.1399 7.97C13.4399 7.97 12.5599 6.91 12.5599 5.5C12.5599 3.82 13.7599 2.89 15.2499 2.89C15.8299 2.89 16.2699 3 16.4699 3.1L16.2399 3.99C16.0099 3.89 15.6999 3.81 15.2999 3.81C14.4199 3.81 13.7299 4.34 13.7299 5.44C13.7299 6.42 14.3199 7.04 15.3099 7.04ZM10.0099 4.07C10.0099 3.84 9.86995 3.58 9.57995 3.58C9.28995 3.58 9.12995 3.83 9.12995 4.08C9.12995 4.33 9.24995 4.55 9.46995 4.79C9.82995 4.54 10.0099 4.35 10.0099 4.07ZM8.62995 6.39C8.62995 6.81 8.93995 7.17 9.44995 7.17C9.73995 7.17 9.97995 7.06 10.1299 6.92C9.81995 6.61 9.41995 6.17 9.01995 5.71C8.80995 5.86 8.62995 6.07 8.62995 6.39Z" fill="#FEFEFE"/>
<path d="M15.59 19.93C15.38 19.88 15.16 19.85 14.95 19.79C13.15 19.3 11.92 17.61 12.03 15.78C12.14 13.89 13.53 12.35 15.4 12.07C17.97 11.67 20.22 13.86 19.91 16.45C19.69 18.26 18.3 19.67 16.48 19.91C16.44 19.91 16.41 19.93 16.37 19.94H15.59V19.93ZM16.72 16.96C16.72 16.64 16.72 16.33 16.72 16.01C16.72 15.57 16.4 15.25 15.98 15.25C15.56 15.25 15.25 15.57 15.24 16.01C15.24 16.64 15.24 17.27 15.24 17.91C15.24 18.34 15.57 18.67 15.98 18.67C16.39 18.67 16.71 18.34 16.71 17.91C16.71 17.59 16.71 17.28 16.71 16.96H16.72ZM15.24 14.01C15.24 14.63 15.37 14.77 15.98 14.77C16.59 14.77 16.72 14.64 16.72 14.04C16.72 13.41 16.59 13.28 15.96 13.29C15.35 13.29 15.24 13.41 15.24 14.02V14.01Z" fill="#FEFEFE"/>
</g>
<defs>
<clipPath id="clip0_828_4058">
<rect width="20" height="20" fill="white"/>
</clipPath>
</defs>
</svg>
