<svg width="20" height="20" viewBox="0 0 20 20" fill="none" xmlns="http://www.w3.org/2000/svg">
<g clip-path="url(#clip0_1466_6450)">
<path d="M10.0495 0C5.33953 0 1.51953 3.82 1.51953 8.53C1.51953 13.24 5.33953 17.07 10.0495 17.07C14.7595 17.07 18.5795 13.25 18.5795 8.53C18.5795 3.81 14.7595 0 10.0495 0ZM10.0495 14.94C6.50953 14.94 3.63953 12.07 3.63953 8.53C3.63953 4.99 6.50953 2.13 10.0495 2.13C13.5895 2.13 16.4595 5 16.4595 8.53C16.4595 12.06 13.5895 14.94 10.0495 14.94Z" fill="#FEFEFE"/>
<path d="M8.11976 8.53004C8.11976 7.61004 8.10976 6.69004 8.14976 5.77004C8.15976 5.50004 8.41976 5.35004 8.61976 5.47004C9.98976 6.35004 11.3398 7.27004 12.6698 8.21004C12.8798 8.36004 12.8798 8.71004 12.6698 8.86004C11.3398 9.80004 9.98976 10.71 8.62976 11.59C8.41976 11.73 8.14976 11.55 8.13976 11.27C8.10976 10.35 8.11976 9.44004 8.11976 8.52004V8.53004Z" fill="#FEFEFE"/>
<path d="M15.51 12.78H4.59C2.6073 12.78 1 14.3873 1 16.37C1 18.3527 2.6073 19.96 4.59 19.96H15.51C17.4927 19.96 19.1 18.3527 19.1 16.37C19.1 14.3873 17.4927 12.78 15.51 12.78Z" fill="#FEFEFE"/>
<path d="M3.75977 14.02H4.79977V17.75H6.62977V18.62H3.75977V14.02Z" fill="#1C212E"/>
<path d="M8.42965 14.02V18.62H7.38965V14.02H8.42965Z" fill="#1C212E"/>
<path d="M10.5598 18.62L9.08984 14.02H10.2298L10.7898 15.97C10.9498 16.52 11.0898 17.04 11.1998 17.62H11.2198C11.3398 17.07 11.4798 16.52 11.6398 16L12.2298 14.03H13.3398L11.7898 18.63H10.5798L10.5598 18.62Z" fill="#1C212E"/>
<path d="M16.6902 16.67H15.0002V17.76H16.8902V18.61H13.9502V14.01H16.7902V14.86H15.0002V15.82H16.6902V16.67Z" fill="#1C212E"/>
</g>
<defs>
<clipPath id="clip0_1466_6450">
<rect width="18.1" height="19.96" fill="white" transform="translate(1)"/>
</clipPath>
</defs>
</svg>
