<svg width="24" height="24" viewBox="0 0 24 24" fill="none" xmlns="http://www.w3.org/2000/svg">
<g clip-path="url(#clip0_1738_7900)">
<path d="M17.54 14.67H6.59C5.6 14.67 4.7 15.07 4.05 15.72C3.4 16.37 3 17.27 3 18.26C3 20.24 4.61 21.84 6.59 21.84H17.54C18.53 21.84 19.43 21.44 20.08 20.79C20.73 20.15 21.13 19.25 21.13 18.26C21.13 16.27 19.52 14.67 17.54 14.67ZM19.16 20.11C18.69 20.58 18.03 20.87 17.31 20.87H6.81C5.37 20.87 4.19 19.7 4.19 18.26C4.19 17.53 4.49 16.88 4.96 16.41C5.43 15.93 6.09 15.64 6.81 15.64H17.31C18.76 15.64 19.93 16.81 19.93 18.26C19.93 18.98 19.64 19.63 19.16 20.11Z" fill="#FEFEFE"/>
<path d="M12.07 2C7.52997 2 3.83997 5.7 3.83997 10.23C3.83997 11.97 4.37997 13.58 5.28997 14.92C5.68997 14.76 6.12997 14.67 6.58997 14.67H7.05997C5.98997 13.49 5.35997 11.93 5.35997 10.23C5.35997 6.54 8.36997 3.54 12.07 3.54C15.77 3.54 18.78 6.54 18.78 10.23C18.78 11.93 18.15 13.49 17.08 14.67H17.56C18.01 14.67 18.45 14.75 18.85 14.91C19.76 13.57 20.3 11.96 20.3 10.23C20.29 5.7 16.6 2 12.07 2Z" fill="#FEFEFE"/>
<path d="M10.09 9.57997C10.09 8.65997 10.08 7.73997 10.12 6.81997C10.13 6.54997 10.39 6.39997 10.59 6.51997C11.96 7.39997 13.31 8.31997 14.64 9.25997C14.85 9.40997 14.85 9.75997 14.64 9.90997C13.31 10.85 11.96 11.76 10.6 12.64C10.39 12.78 10.12 12.6 10.11 12.32C10.08 11.4 10.09 10.49 10.09 9.56997V9.57997Z" fill="#FEFEFE"/>
<path d="M17.87 18.65H16.34V19.64H18.06V20.41H15.39V16.23H17.97V17H16.34V17.87H17.87V18.64V18.65Z" fill="#FEFEFE"/>
<path d="M12.3 20.43L10.97 16.25H12.01L12.52 18.02C12.67 18.52 12.79 18.99 12.89 19.52H12.91C13.02 19.02 13.15 18.52 13.29 18.05L13.83 16.26H14.84L13.43 20.44H12.31L12.3 20.43Z" fill="#FEFEFE"/>
<path d="M10.3701 16.25V20.43H9.43005V16.25H10.3701Z" fill="#FEFEFE"/>
<path d="M6.13 16.25H7.07V19.64H8.73V20.43H6.12V16.25H6.13Z" fill="#FEFEFE"/>
</g>
<defs>
<clipPath id="clip0_1738_7900">
<rect width="18.13" height="19.84" fill="white" transform="translate(3 2)"/>
</clipPath>
</defs>
</svg>
