<svg width="24" height="24" viewBox="0 0 24 24" fill="none" xmlns="http://www.w3.org/2000/svg">
<g clip-path="url(#clip0_1739_7908)">
<g clip-path="url(#clip1_1739_7908)">
<path d="M3.94999 21.84C3.83999 21.84 3.72999 21.84 3.61999 21.81C3.43999 21.78 3.23999 21.71 3.05999 21.62C2.88999 21.53 2.73999 21.43 2.59999 21.3C2.46999 21.17 2.34999 21.03 2.25999 20.86C2.20999 20.78 2.16999 20.68 2.12999 20.59C2.07999 20.48 2.04999 20.37 2.01999 20.26C1.98999 20.1 1.98999 19.95 1.98999 19.82C1.99999 19.82 1.99999 9.87999 1.99999 9.77999C1.99999 9.65999 1.99999 9.53999 2.00999 9.41999C2.02999 9.29999 2.05999 9.18999 2.09999 9.07999C2.12999 8.97999 2.16999 8.88999 2.20999 8.79999C2.28999 8.63999 2.38999 8.47999 2.51999 8.34999C2.63999 8.21999 2.77999 8.10999 2.93999 8.00999C3.09999 7.91999 3.26999 7.84999 3.44999 7.79999C3.49999 7.78999 3.54999 7.77999 3.59999 7.76999V7.66999C3.59999 7.34999 3.59999 7.02999 3.59999 6.69999C3.61999 6.11999 3.86999 5.63999 4.34999 5.25999C4.58999 5.06999 4.86999 4.94999 5.18999 4.88999V4.80999C5.18999 4.52999 5.18999 4.23999 5.18999 3.95999C5.19999 3.12999 5.59999 2.50999 6.33999 2.15999C6.44999 2.10999 6.55999 2.06999 6.67999 2.03999C6.84999 1.98999 7.01999 1.98999 7.14999 1.98999H16.67C16.82 1.98999 16.9 1.98999 16.97 1.99999C17.02 1.99999 17.07 2.01999 17.13 2.02999L17.23 2.05999C17.29 2.07999 17.35 2.09999 17.41 2.11999C17.52 2.15999 17.64 2.21999 17.74 2.27999C17.84 2.33999 17.94 2.41999 18.03 2.49999C18.12 2.57999 18.2 2.66999 18.27 2.76999C18.34 2.86999 18.41 2.96999 18.46 3.08999C18.51 3.19999 18.55 3.31999 18.58 3.43999C18.6 3.52999 18.62 3.62999 18.63 3.73999C18.66 4.02999 18.65 4.31999 18.65 4.60999V4.89999C19.65 5.10999 20.24 5.84999 20.24 6.91999C20.24 6.91999 20.24 7.57999 20.24 7.76999C20.78 7.85999 21.21 8.13999 21.5 8.58999C21.59 8.71999 21.64 8.85999 21.69 8.96999L21.73 9.05999C21.79 9.21999 21.81 9.29999 21.83 9.37999L21.85 9.49999C21.85 9.58999 21.85 9.66999 21.85 9.74999V19.81C21.85 19.97 21.85 20.06 21.84 20.16C21.82 20.29 21.78 20.4 21.76 20.48C21.73 20.57 21.69 20.66 21.65 20.75C21.57 20.91 21.48 21.05 21.37 21.18C21.26 21.31 21.12 21.42 20.98 21.51C20.82 21.61 20.65 21.69 20.46 21.75C20.37 21.78 20.28 21.8 20.18 21.81C20.1 21.82 20.01 21.82 19.92 21.82H19.68H19.6H19.54H3.96999L3.94999 21.84ZM4.01999 9.06999C3.55999 9.06999 3.31999 9.30999 3.31999 9.76999V19.82C3.31999 20.28 3.56999 20.53 4.02999 20.53H19.82C20.28 20.53 20.53 20.28 20.53 19.82V9.77999C20.53 9.70999 20.53 9.64999 20.52 9.57999C20.44 9.14999 20.1 9.05999 19.83 9.05999H7.40999H4.01999V9.06999ZM18.93 7.73999V6.86999C18.93 6.42999 18.68 6.18999 18.25 6.18999H6.21999H5.52999C5.17999 6.18999 4.92999 6.44999 4.91999 6.79999C4.91999 7.03999 4.91999 7.27999 4.91999 7.52999V7.74999H18.93V7.73999ZM17.34 4.86999C17.34 4.86999 17.34 4.27999 17.34 3.99999C17.34 3.54999 17.09 3.30999 16.64 3.30999H7.20999C6.75999 3.30999 6.51999 3.54999 6.50999 3.99999C6.50999 4.28999 6.50999 4.57999 6.50999 4.86999H17.34Z" fill="#FEFEFE"/>
<path d="M9.97003 19.28C9.81003 19.28 9.65003 19.24 9.50003 19.15C9.19003 18.97 9.03003 18.68 9.03003 18.27C9.03003 17.49 9.03003 15.09 9.03003 15.09V14.24C9.03003 13.47 9.03003 12.71 9.03003 11.95C9.03003 11.53 9.19003 11.23 9.51003 11.05C9.66003 10.97 9.81003 10.93 9.97003 10.93C10.16 10.93 10.35 10.99 10.54 11.11L15.6 14.29C15.92 14.49 16.1 14.78 16.1 15.1C16.1 15.42 15.92 15.7 15.61 15.9L10.53 19.09C10.34 19.21 10.15 19.27 9.96003 19.27L9.97003 19.28ZM10.36 17.67L14.42 15.11L10.36 12.56V17.67Z" fill="#FEFEFE"/>
<path d="M4.46005 13.1C4.07005 13.1 3.80005 12.8 3.80005 12.37C3.80005 11.81 3.80005 11.34 3.80005 10.87C3.80005 10.12 4.36005 9.57 5.12005 9.56H6.64005C6.86005 9.56 7.04005 9.63 7.18005 9.77C7.30005 9.89 7.36005 10.05 7.36005 10.23C7.36005 10.61 7.06005 10.88 6.64005 10.88H5.25005C5.19005 10.88 5.15005 10.88 5.12005 10.88C5.12005 10.9 5.12005 10.94 5.12005 11.01V12.38C5.12005 12.87 4.80005 13.1 4.48005 13.1H4.46005Z" fill="#FEFEFE"/>
<path d="M19.56 12.92C19.18 12.92 18.91 12.63 18.91 12.23V10.77C18.91 10.77 18.91 10.71 18.91 10.69H17.39C17.02 10.69 16.75 10.47 16.69 10.15C16.66 9.96 16.7 9.77 16.82 9.63C16.94 9.48 17.13 9.39 17.34 9.38H18.94C19.66 9.39 20.21 9.94001 20.22 10.64C20.23 11.15 20.22 11.65 20.22 12.16C20.22 12.63 19.94 12.92 19.57 12.92H19.56Z" fill="#FEFEFE"/>
</g>
</g>
<defs>
<clipPath id="clip0_1739_7908">
<rect width="20" height="20" fill="white" transform="translate(2 2)"/>
</clipPath>
<clipPath id="clip1_1739_7908">
<rect width="19.85" height="19.84" fill="white" transform="translate(2 2)"/>
</clipPath>
</defs>
</svg>
