<svg width="20" height="20" viewBox="0 0 20 20" fill="none" xmlns="http://www.w3.org/2000/svg">
<g clip-path="url(#clip0_1466_6453)">
<path d="M9.91 6.08008C12.5 6.08008 15.1 6.08008 17.69 6.08008C18.99 6.08008 19.82 6.91008 19.82 8.21008C19.82 11.2301 19.82 14.2401 19.82 17.2601C19.82 18.2301 19.25 18.9901 18.35 19.2301C18.17 19.2801 17.97 19.3001 17.78 19.3001C12.54 19.3001 7.29 19.3001 2.05 19.3001C0.86 19.3001 0 18.4401 0 17.2601C0 14.2201 0 11.1701 0 8.13008C0 6.94008 0.86 6.09008 2.04 6.08008C4.66 6.08008 7.28 6.08008 9.91 6.08008ZM7.27 12.6701C7.27 13.4501 7.27 14.2301 7.27 15.0001C7.27 15.5601 7.5 16.0101 7.99 16.2801C8.49 16.5601 8.99 16.5201 9.48 16.2201C10.7 15.4601 11.93 14.6901 13.15 13.9201C14.14 13.3001 14.14 12.0701 13.15 11.4501C11.93 10.6801 10.7 9.92008 9.48 9.15008C9 8.85008 8.49 8.81008 7.99 9.09008C7.5 9.37008 7.27 9.81008 7.27 10.3701C7.27 11.1301 7.27 11.9001 7.27 12.6601V12.6701Z" fill="#FEFEFE"/>
<path d="M17.85 5.51988H2.02001C1.74001 3.91988 2.74001 2.87988 4.01001 2.87988C7.95001 2.87988 11.89 2.87988 15.82 2.87988C16.98 2.87988 17.84 3.73988 17.84 4.90988C17.84 5.10988 17.84 5.30988 17.84 5.51988H17.85Z" fill="#FEFEFE"/>
<path d="M4.09961 2.32005C4.33961 1.55005 5.10961 1.00005 5.95961 1.00005C7.47961 1.00005 8.99961 1.00005 10.5196 1.00005C11.6396 1.00005 12.7596 0.99005 13.8796 1.00005C14.6796 1.01005 15.2596 1.39005 15.6396 2.10005C15.6696 2.15005 15.6796 2.20005 15.6996 2.25005C15.6996 2.27005 15.6996 2.29005 15.6996 2.31005H4.09961V2.32005Z" fill="#FEFEFE"/>
<path d="M8.27977 9.81006C8.38977 9.85006 8.46977 9.87006 8.53977 9.92006C9.93977 10.7901 11.3398 11.6701 12.7398 12.5401C12.9498 12.6701 12.9498 12.7201 12.7398 12.8501C11.3398 13.7301 9.93977 14.6001 8.53977 15.4701C8.32977 15.6001 8.25977 15.5801 8.25977 15.3701C8.25977 13.5701 8.25977 11.7601 8.25977 9.96006C8.25977 9.93006 8.26977 9.90006 8.27977 9.82006V9.81006Z" fill="#FEFEFE"/>
</g>
<defs>
<clipPath id="clip0_1466_6453">
<rect width="19.83" height="18.3" fill="white" transform="translate(0 1)"/>
</clipPath>
</defs>
</svg>
