<svg width="24" height="24" viewBox="0 0 24 24" fill="none" xmlns="http://www.w3.org/2000/svg">
<path d="M17.3095 21.9298C17.0595 22.0498 16.768 22.0156 16.5537 21.8441L10.8535 17.2868C10.5449 17.0411 10.4964 16.5911 10.7421 16.2825C10.9892 15.9725 11.4378 15.9225 11.7464 16.1696L16.2852 19.7998V11.028C16.2852 10.6323 16.6052 10.3137 16.9995 10.3137C17.3938 10.3137 17.7138 10.6337 17.7138 11.028V21.2855C17.7138 21.5598 17.5566 21.8098 17.3095 21.9298Z" fill="white"/>
<path d="M21.7911 3.21774L17.5066 7.50218L17.5052 7.50361L10.3621 14.6467L10.3607 14.6482L8.93346 16.0753L8.93203 16.0768L3.21897 21.7913C2.94039 22.0698 2.48752 22.0698 2.20894 21.7913C1.93035 21.5127 1.93035 21.0598 2.20894 20.7812L6.70338 16.2854H6.2848C5.48334 16.2854 4.85617 15.6582 4.85617 14.8567V9.14224C4.85617 8.34078 5.48334 7.71362 6.2848 7.71362H9.60491L16.5523 2.15485C16.6823 2.05199 16.8409 1.99913 16.9995 1.99913C17.1038 1.99913 17.2095 2.02199 17.3095 2.06913C17.5566 2.18914 17.7138 2.43914 17.7138 2.71344V5.27496L20.7796 2.20914C20.9196 2.06913 21.1025 1.99913 21.2853 1.99913C21.4682 1.99913 21.6511 2.06913 21.7911 2.20771C22.0696 2.48629 22.0696 2.93916 21.7911 3.21774ZM9.14204 9.14224H6.2848V14.8567H8.132L9.14204 13.8467V9.14224ZM16.2852 4.20064L10.5707 8.77223V12.4181L16.2852 6.70358V4.20064Z" fill="white"/>
</svg>
