<svg width="30" height="30" viewBox="0 0 30 30" fill="none" xmlns="http://www.w3.org/2000/svg">
<g clip-path="url(#clip0_1741_7967)">
<path d="M25.6068 28C26.0141 28 26.4215 27.8754 26.8034 27.5952C27.5926 27.0347 28 26.1317 28 24.8551C28 22.4263 28 14.9533 28 14.9533V12.3066C28 9.90898 28 7.54251 28 5.17605C28 3.86826 27.5926 2.93413 26.7779 2.37365C26.396 2.12455 26.0141 2 25.6068 2C25.1231 2 24.6393 2.18682 24.1556 2.56048L11.273 12.4623C10.4583 13.085 10 13.988 10 14.9844C10 15.9808 10.4583 16.8527 11.2475 17.4754L24.181 27.4084C24.6648 27.782 25.1485 27.9689 25.6322 27.9689L25.6068 28ZM24.6139 22.9868L14.2772 15.0156L24.6139 7.07545V22.9868Z" fill="#FEFEFE"/>
<rect width="4" height="26" rx="1" transform="matrix(-1 0 0 1 6 2)" fill="#FEFEFE"/>
</g>
<defs>
<clipPath id="clip0_1741_7967">
<rect width="26" height="26" fill="white" transform="matrix(-1 0 0 1 28 2)"/>
</clipPath>
</defs>
</svg>
