<svg width="30" height="30" viewBox="0 0 30 30" fill="none" xmlns="http://www.w3.org/2000/svg">
<g clip-path="url(#clip0_1741_7968)">
<path d="M4.39321 28C3.98585 28 3.5785 27.8754 3.1966 27.5952C2.40735 27.0347 2 26.1317 2 24.8551C2 22.4263 2 14.9533 2 14.9533V12.3066C2 9.90898 2 7.54251 2 5.17605C2 3.86826 2.40736 2.93413 3.22207 2.37365C3.60396 2.12455 3.98585 2 4.39321 2C4.87694 2 5.36068 2.18682 5.84441 2.56048L18.727 12.4623C19.5417 13.085 20 13.988 20 14.9844C20 15.9808 19.5417 16.8527 18.7525 17.4754L5.81895 27.4084C5.33522 27.782 4.85148 27.9689 4.36775 27.9689L4.39321 28ZM5.38614 22.9868L15.7228 15.0156L5.38614 7.07545V22.9868Z" fill="#FEFEFE"/>
<rect x="24" y="2" width="4" height="26" rx="1" fill="#FEFEFE"/>
</g>
<defs>
<clipPath id="clip0_1741_7968">
<rect width="26" height="26" fill="white" transform="translate(2 2)"/>
</clipPath>
</defs>
</svg>
