<svg width="30" height="30" viewBox="0 0 30 30" fill="none" xmlns="http://www.w3.org/2000/svg">
<path d="M6.19095 28C5.64781 28 5.10467 27.8754 4.59547 27.5952C3.54314 27.0347 3 26.1317 3 24.8551C3 22.4263 3 14.9533 3 14.9533V12.3066C3 9.90898 3 7.54251 3 5.17605C3 3.86826 3.54314 2.93413 4.62942 2.37365C5.13861 2.12455 5.64781 2 6.19095 2C6.83592 2 7.4809 2.18682 8.12588 2.56048L25.3027 12.4623C26.389 13.085 27 13.988 27 14.9844C27 15.9808 26.389 16.8527 25.3366 17.4754L8.09194 27.4084C7.44696 27.782 6.80198 27.9689 6.157 27.9689L6.19095 28ZM7.51485 22.9868L21.297 15.0156L7.51485 7.07545V22.9868Z" fill="#FEFEFE"/>
</svg>
