<svg width="24" height="24" viewBox="0 0 24 24" fill="none" xmlns="http://www.w3.org/2000/svg">
<g clip-path="url(#clip0_375_1675)">
<g clip-path="url(#clip1_375_1675)">
<path d="M17.36 21.97C17.06 21.89 16.75 21.85 16.46 21.74C14.56 21.05 13.55 19.05 14.12 17.11C14.15 17.01 14.18 16.94 14.05 16.87C12.61 16.06 11.17 15.24 9.72997 14.42C9.70997 14.42 9.68997 14.41 9.66997 14.4C8.79997 15.38 7.70997 15.85 6.38997 15.73C5.46997 15.65 4.68997 15.26 4.05997 14.59C2.64997 13.09 2.63997 10.87 4.05997 9.38C4.82997 8.57 5.78997 8.19 6.90997 8.23C8.01997 8.27 8.92997 8.75 9.65997 9.58C9.71997 9.55 9.76997 9.52 9.81997 9.49C11.21 8.7 12.6 7.91 13.99 7.13C14.12 7.05 14.15 6.99 14.11 6.84C13.51 4.87 14.65 2.75 16.61 2.16C18.61 1.57 20.71 2.68 21.31 4.65C21.99 6.87 20.54 9.17 18.22 9.49C16.96 9.67 15.87 9.27 14.99 8.36C14.84 8.21 14.75 8.2 14.57 8.3C13.21 9.08 11.85 9.85 10.49 10.62C10.34 10.7 10.32 10.78 10.37 10.94C10.58 11.63 10.58 12.33 10.37 13.03C10.35 13.1 10.33 13.17 10.31 13.24C10.37 13.28 10.42 13.31 10.48 13.34C11.86 14.13 13.25 14.91 14.63 15.7C14.76 15.77 14.83 15.77 14.94 15.66C16.93 13.54 20.36 14.29 21.29 17.05C22.02 19.23 20.54 21.61 18.25 21.93C18.19 21.93 18.14 21.96 18.08 21.97H17.34H17.36ZM9.21997 12C9.23997 10.66 8.15997 9.56 6.79997 9.53C5.46997 9.51 4.33997 10.6 4.31997 11.94C4.29997 13.3 5.37997 14.4 6.73997 14.43C8.07997 14.45 9.19997 13.36 9.20997 12H9.21997ZM15.28 5.76C15.28 7.11 16.36 8.2 17.71 8.21C19.06 8.22 20.17 7.13 20.17 5.77C20.17 4.42 19.09 3.33 17.74 3.32C16.38 3.32 15.28 4.4 15.28 5.76ZM15.28 18.2C15.28 19.55 16.37 20.64 17.72 20.64C19.08 20.64 20.18 19.55 20.18 18.19C20.18 16.84 19.09 15.75 17.74 15.75C16.39 15.75 15.28 16.84 15.29 18.2H15.28Z" fill="#FEFEFE"/>
</g>
</g>
<defs>
<clipPath id="clip0_375_1675">
<rect width="20" height="20" fill="white" transform="translate(2 2)"/>
</clipPath>
<clipPath id="clip1_375_1675">
<rect width="18.5" height="19.97" fill="white" transform="translate(3 2)"/>
</clipPath>
</defs>
</svg>
