<svg width="24" height="24" viewBox="0 0 24 24" fill="none" xmlns="http://www.w3.org/2000/svg">
<path d="M13.6227 2.73239C13.3907 2.62172 13.1173 2.65105 12.9173 2.81239L6.43199 8.00038H3.33333C2.59867 8.00038 2 8.59905 2 9.33371V14.667C2 15.4017 2.59867 16.0004 3.33333 16.0004H6.43199L12.916 21.1884C13.0373 21.2844 13.1853 21.3337 13.3333 21.3337C13.432 21.3337 13.5307 21.3124 13.6227 21.2684C13.8533 21.1564 14 20.923 14 20.667V3.33372C14 3.07772 13.8533 2.84439 13.6227 2.73239ZM6 14.667H3.33333V9.33371H6V14.667ZM12.6667 19.279L7.33333 15.0124V8.98838L12.6667 4.72172V19.279Z" fill="white"/>
<path d="M17.376 7.28571C17.1133 7.02571 16.692 7.02971 16.4333 7.29105C16.1747 7.55371 16.1773 7.97505 16.4387 8.23371C17.4453 9.22971 18 10.567 18 12.0004C18 13.4337 17.4453 14.771 16.4387 15.767C16.176 16.0257 16.1733 16.447 16.4333 16.7097C16.564 16.8417 16.736 16.907 16.9067 16.907C17.076 16.907 17.2453 16.843 17.376 16.7137C18.6387 15.467 19.3333 13.7937 19.3333 12.0004C19.3333 10.207 18.6387 8.53371 17.376 7.28571Z" fill="white"/>
<path d="M19.256 5.40706C18.9947 5.14839 18.572 5.14972 18.3134 5.41106C18.0547 5.67239 18.056 6.09505 18.3174 6.35372C19.832 7.85639 20.6667 9.86172 20.6667 12.0004C20.6667 14.139 19.832 16.1444 18.3174 17.647C18.056 17.9057 18.0547 18.3284 18.3134 18.5897C18.444 18.7217 18.6147 18.787 18.7867 18.787C18.956 18.787 19.1254 18.723 19.256 18.5937C21.0254 16.839 22 14.4977 22 12.0004C22 9.50305 21.0254 7.16172 19.256 5.40706Z" fill="white"/>
</svg>
